<svg width="148" height="48" viewBox="0 0 148 48" fill="none" xmlns="http://www.w3.org/2000/svg">
<g clip-path="url(#clip0_115_685)">
<path d="M144 0H4C1.79086 0 0 1.79086 0 4V44C0 46.2091 1.79086 48 4 48H144C146.209 48 148 46.2091 148 44V4C148 1.79086 146.209 0 144 0Z" fill="#353636"/>
<path d="M58.3976 34.7336H55.8916L54.5189 30.4684H49.7474L48.4398 34.7336H46L50.7273 20.2128H53.6471L58.3976 34.7336ZM54.1062 28.6789L52.8648 24.8872C52.7334 24.4999 52.4874 23.5877 52.1243 22.1517H52.0802C51.86 23.0666 51.6276 23.9785 51.3828 24.8872L50.1634 28.6789H54.1062ZM70.5546 29.3696C70.5546 31.1503 70.068 32.5579 69.0947 33.5912C68.223 34.5111 67.1405 34.9704 65.8483 34.9704C64.4535 34.9704 63.4515 34.475 62.8413 33.4843H62.7972V39H60.4446V27.71C60.4446 26.5905 60.4148 25.4415 60.3574 24.2631H62.4264L62.5577 25.9227H62.6019C63.3864 24.6723 64.5771 24.0481 66.1749 24.0481C67.4241 24.0481 68.4669 24.5359 69.3011 25.5124C70.1375 26.4901 70.5546 27.7755 70.5546 29.3696ZM68.1579 29.4547C68.1579 28.4356 67.9262 27.5954 67.4605 26.9342C66.9518 26.2446 66.2687 25.8998 65.4124 25.8998C64.832 25.8998 64.3045 26.0918 63.8333 26.4705C63.3611 26.8524 63.0521 27.351 62.9075 27.9686C62.8347 28.2566 62.7983 28.4923 62.7983 28.6778V30.4236C62.7983 31.1853 63.0344 31.8279 63.5067 32.3528C63.979 32.8776 64.5925 33.1395 65.3473 33.1395C66.2334 33.1395 66.9231 32.8012 67.4163 32.1269C67.9107 31.4515 68.1579 30.5611 68.1579 29.4547ZM82.7338 29.3696C82.7338 31.1503 82.2471 32.5579 81.2727 33.5912C80.4021 34.5111 79.3196 34.9704 78.0274 34.9704C76.6326 34.9704 75.6306 34.475 75.0215 33.4843H74.9785V39H72.6248V27.71C72.6248 26.5905 72.595 25.4415 72.5376 24.2631H74.6066L74.7379 25.9227H74.7821C75.5655 24.6723 76.7562 24.0481 78.3551 24.0481C79.6032 24.0481 80.646 24.5359 81.4824 25.5124C82.3166 26.4901 82.7338 27.7755 82.7338 29.3696ZM80.3381 29.4547C80.3381 28.4356 80.1053 27.5954 79.6396 26.9342C79.1309 26.2446 78.45 25.8998 77.5926 25.8998C77.0143 25.8996 76.4545 26.1018 76.0125 26.4705C75.5402 26.8524 75.2323 27.351 75.0877 27.9686C75.016 28.2566 74.9785 28.4923 74.9785 28.6778V30.4236C74.9785 31.1853 75.2146 31.8279 75.6847 32.3528C76.157 32.8765 76.7705 33.1395 77.5275 33.1395C78.4136 33.1395 79.1033 32.8012 79.5966 32.1269C80.0898 31.4515 80.3381 30.5611 80.3381 29.4547ZM96.3507 30.6615C96.3507 31.8967 95.917 32.9016 95.0464 33.6774C94.0897 34.5252 92.7578 34.9486 91.0463 34.9486C89.4661 34.9486 88.1993 34.6474 87.2404 34.044L87.7855 32.1051C88.8183 32.7227 89.9516 33.0326 91.1864 33.0326C92.0725 33.0326 92.7622 32.834 93.2576 32.439C93.7509 32.044 93.997 31.5137 93.997 30.8525C93.997 30.2633 93.7939 29.7668 93.3867 29.3642C92.9818 28.9615 92.3053 28.5873 91.3608 28.2414C88.7896 27.2932 87.5052 25.9042 87.5052 24.0776C87.5052 22.8839 87.9554 21.9051 88.857 21.1435C89.7552 20.3808 90.9536 20 92.4521 20C93.7884 20 94.8985 20.2302 95.7846 20.6896L95.1965 22.586C94.3688 22.1408 93.4331 21.9182 92.3859 21.9182C91.5583 21.9182 90.9116 22.1201 90.4482 22.5216C90.2602 22.686 90.1104 22.8886 90.0089 23.1155C89.9074 23.3424 89.8566 23.5883 89.86 23.8364C89.86 24.4104 90.084 24.885 90.5342 25.2582C90.926 25.603 91.6377 25.9762 92.6706 26.3788C93.9341 26.8818 94.8621 27.4699 95.4591 28.1443C96.0539 28.8164 96.3507 29.6577 96.3507 30.6615ZM104.129 26.0089H101.536V31.0925C101.536 32.3855 101.993 33.0315 102.909 33.0315C103.329 33.0315 103.678 32.9955 103.954 32.9234L104.019 34.69C103.555 34.8613 102.945 34.9475 102.189 34.9475C101.26 34.9475 100.534 34.6671 100.01 34.1073C99.4879 33.5465 99.2253 32.6059 99.2253 31.2846V26.0067H97.6804V24.2609H99.2253V22.3438L101.536 21.6542V24.2609H104.129V26.0089ZM115.83 29.4122C115.83 31.0216 115.365 32.343 114.436 33.3763C113.461 34.4401 112.168 34.9704 110.556 34.9704C109.002 34.9704 107.765 34.4609 106.843 33.4417C105.92 32.4226 105.459 31.1362 105.459 29.5857C105.459 27.9631 105.933 26.6341 106.886 25.6008C107.836 24.5664 109.118 24.0492 110.73 24.0492C112.284 24.0492 113.534 24.5588 114.478 25.579C115.379 26.5687 115.83 27.8464 115.83 29.4122ZM113.388 29.4875C113.388 28.5218 113.18 27.6936 112.757 27.0029C112.264 26.1671 111.559 25.7503 110.645 25.7503C109.699 25.7503 108.981 26.1682 108.488 27.0029C108.065 27.6947 107.857 28.536 107.857 29.5311C107.857 30.4968 108.065 31.3249 108.488 32.0145C108.997 32.8503 109.707 33.2672 110.624 33.2672C111.522 33.2672 112.228 32.8416 112.736 31.9927C113.171 31.2889 113.388 30.452 113.388 29.4875ZM123.476 26.309C123.232 26.2652 122.984 26.2437 122.735 26.2446C121.907 26.2446 121.267 26.5534 120.817 27.1721C120.425 27.7176 120.229 28.4072 120.229 29.2398V34.7336H117.877L117.899 27.5605C117.899 26.3537 117.87 25.2549 117.811 24.2642H119.86L119.946 26.2675H120.012C120.26 25.579 120.652 25.0247 121.188 24.609C121.679 24.2457 122.275 24.049 122.888 24.0481C123.106 24.0481 123.302 24.0634 123.476 24.0907V26.309ZM133.999 29.003C134.005 29.3566 133.976 29.71 133.913 30.0581H126.855C126.883 31.0925 127.224 31.8836 127.879 32.4292C128.474 32.9169 129.243 33.1613 130.188 33.1613C131.233 33.1613 132.186 32.9966 133.044 32.6659L133.412 34.2808C132.41 34.7129 131.227 34.9279 129.862 34.9279C128.22 34.9279 126.931 34.45 125.993 33.4952C125.058 32.5405 124.589 31.2584 124.589 29.65C124.589 28.0712 125.025 26.7563 125.897 25.7077C126.811 24.5882 128.046 24.0285 129.6 24.0285C131.126 24.0285 132.281 24.5882 133.066 25.7077C133.686 26.597 133.999 27.6969 133.999 29.003ZM131.755 28.3996C131.77 27.71 131.617 27.1142 131.298 26.6112C130.891 25.9642 130.265 25.6412 129.423 25.6412C128.654 25.6412 128.028 25.9565 127.55 26.5894C127.159 27.0924 126.926 27.6958 126.854 28.3985H131.755V28.3996Z" fill="white"/>
<path d="M50.6497 13.9774C50.6497 14.5191 50.4366 14.9688 50.0091 15.3255C49.52 15.7414 48.6793 15.9499 47.4911 15.9499C46.9447 15.9499 46.448 15.9233 46 15.8702V9.29761C46.474 9.20563 47.0604 9.15862 47.7595 9.15862C48.6252 9.15862 49.2787 9.30783 49.7224 9.60524C50.165 9.90265 50.3868 10.3125 50.3868 10.8347C50.3868 11.1516 50.284 11.4408 50.0806 11.7024C49.8623 11.9722 49.5634 12.1741 49.2225 12.2819V12.3115C49.6207 12.4035 49.9496 12.5824 50.2083 12.8461C50.5026 13.1563 50.6605 13.561 50.6497 13.9774ZM49.2538 10.9441C49.2538 10.29 48.794 9.96295 47.8763 9.96295C47.555 9.96295 47.3093 9.98339 47.134 10.0232V11.9855H47.8331C48.2713 11.9855 48.6187 11.8894 48.8719 11.6983C48.9942 11.6102 49.0927 11.4958 49.1591 11.3647C49.2255 11.2335 49.258 11.0894 49.2538 10.9441ZM49.4649 13.9478C49.4649 13.5512 49.3015 13.2508 48.9736 13.0464C48.6803 12.8614 48.2908 12.7684 47.8038 12.7684H47.1351V15.0986C47.2747 15.1252 47.5041 15.1384 47.8255 15.1384C48.3049 15.1384 48.6857 15.0495 48.9638 14.8707C49.2971 14.6642 49.4649 14.3576 49.4649 13.9478ZM56.1922 15.8906H55.174L55.0906 15.3357H55.0593C54.7098 15.7782 54.2131 16 53.5692 16C53.0866 16 52.6971 15.8539 52.4038 15.5636C52.2722 15.4329 52.1693 15.279 52.101 15.1106C52.0326 14.9422 52.0002 14.7627 52.0056 14.5825C52.0056 13.9938 52.2653 13.5451 52.788 13.2344C53.3084 12.9237 54.0421 12.7714 54.9868 12.7786V12.6887C54.9868 12.054 54.634 11.7372 53.9285 11.7372C53.4253 11.7372 52.9817 11.8567 52.5986 12.0939L52.3681 11.3907C52.8421 11.1137 53.4275 10.9747 54.1178 10.9747C55.4521 10.9747 56.1197 11.6391 56.1197 12.9677V14.7419C56.1186 15.2233 56.1446 15.6065 56.1922 15.8906ZM55.0171 14.235V13.492C53.7651 13.4715 53.1396 13.7955 53.1396 14.4629C53.1396 14.7143 53.2121 14.9024 53.3582 15.0281C53.5101 15.1556 53.7081 15.2229 53.9112 15.2161C54.1611 15.2161 54.3927 15.1415 54.6059 14.9933C54.7348 14.9083 54.8397 14.7947 54.9114 14.6625C54.9831 14.5303 55.0194 14.3835 55.0171 14.235ZM59.3617 9.63488C59.365 9.72141 59.349 9.80764 59.3147 9.88794C59.2804 9.96824 59.2285 10.0408 59.1626 10.1009C59.0934 10.1613 59.0123 10.2082 58.9239 10.2389C58.8355 10.2695 58.7416 10.2835 58.6475 10.2798C58.558 10.2812 58.4691 10.2654 58.3863 10.2335C58.3034 10.2015 58.2283 10.154 58.1655 10.0938C58.1026 10.0336 58.0534 9.96195 58.0208 9.88324C57.9881 9.80454 57.9727 9.72039 57.9755 9.6359C57.9755 9.45092 58.0426 9.29761 58.1757 9.17906C58.3088 9.0605 58.4722 9.00021 58.6691 9.00021C58.8522 8.99587 59.0296 9.06018 59.1626 9.17906C59.2281 9.23734 59.2798 9.30812 59.3141 9.38672C59.3484 9.46531 59.3646 9.54991 59.3617 9.63488ZM59.2361 15.8906H58.1021V11.0729H59.2361V15.8906ZM65.4084 15.8906H64.1272L63.466 14.8799C63.3189 14.655 63.1587 14.3873 62.9834 14.0766H62.9618C62.8091 14.3485 62.6485 14.6163 62.4803 14.8799L61.8505 15.8906H60.6115L62.3526 13.4317L60.6732 11.0718H61.9327L62.5733 12.0336C62.6988 12.2185 62.8568 12.473 63.0462 12.797H63.0776C63.2312 12.5129 63.3849 12.2512 63.5396 12.0141L64.138 11.0718H65.377L63.6868 13.3918L65.4084 15.8906ZM70.6349 15.8906H69.6166L69.5333 15.3357H69.5019C69.1524 15.7782 68.6557 16 68.0119 16C67.5293 16 67.1397 15.8539 66.8465 15.5636C66.7149 15.4329 66.612 15.279 66.5436 15.1106C66.4753 14.9422 66.4429 14.7627 66.4483 14.5825C66.4483 13.9938 66.708 13.5451 67.2306 13.2344C67.7511 12.9237 68.4848 12.7714 69.4294 12.7786V12.6887C69.4294 12.054 69.0767 11.7372 68.3712 11.7372C67.868 11.7372 67.4243 11.8567 67.0413 12.0939L66.8108 11.3907C67.2847 11.1137 67.8701 10.9747 68.5605 10.9747C69.8947 10.9747 70.5624 11.6391 70.5624 12.9677V14.7419C70.5613 15.2233 70.5862 15.6065 70.6349 15.8906ZM69.4587 14.235V13.492C68.2067 13.4715 67.5812 13.7955 67.5812 14.4629C67.5812 14.7143 67.6537 14.9024 67.7998 15.0281C67.9517 15.1556 68.1497 15.2229 68.3528 15.2161C68.6027 15.2161 68.8343 15.1415 69.0475 14.9933C69.1764 14.9083 69.2813 14.7947 69.353 14.6625C69.4247 14.5303 69.461 14.3835 69.4587 14.235ZM75.2414 12.0152C75.1236 11.9946 75.004 11.9846 74.8843 11.9855C74.4871 11.9855 74.1787 12.1276 73.9602 12.4117C73.7719 12.6631 73.6766 12.9799 73.6766 13.3632V15.8917H72.5437L72.5545 12.5906C72.5545 12.0356 72.5405 11.5297 72.5134 11.0739H73.5003L73.5425 11.9957H73.5739C73.6918 11.6779 73.8801 11.4234 74.1398 11.2323C74.3908 11.0606 74.6635 10.9747 74.9578 10.9747C75.0639 10.9747 75.1591 10.9809 75.2414 10.9942V12.0152ZM84.1859 15.8906H83.0508V13.1312C83.0508 12.2809 82.7089 11.8557 82.0239 11.8557C81.868 11.8516 81.7131 11.8809 81.571 11.9417C81.4289 12.0024 81.3033 12.0929 81.2037 12.2063C80.9959 12.4362 80.884 12.7298 80.8888 13.0321V15.8896H79.7558V12.4495C79.7558 12.0264 79.7407 11.5675 79.7136 11.0708H80.7113L80.7643 11.824H80.7957C80.9267 11.59 81.1236 11.3968 81.3833 11.2425C81.6895 11.0626 82.0347 10.9717 82.4102 10.9717C82.8874 10.9717 83.2835 11.1168 83.5983 11.4081C83.989 11.7648 84.1859 12.2972 84.1859 13.0045V15.8906ZM90 15.8906H88.9818L88.8995 15.3357H88.8681C88.5175 15.7782 88.0209 16 87.3781 16C86.8944 16 86.5048 15.8539 86.2116 15.5636C86.0801 15.4329 85.9774 15.2789 85.9092 15.1105C85.8411 14.9421 85.8089 14.7627 85.8145 14.5825C85.8145 13.9938 86.0742 13.5451 86.5968 13.2344C87.1162 12.9237 87.8499 12.7714 88.7945 12.7786V12.6887C88.7945 12.054 88.4418 11.7372 87.7373 11.7372C87.2342 11.7372 86.7905 11.8567 86.4064 12.0939L86.1759 11.3907C86.6509 11.1137 87.2352 10.9747 87.9256 10.9747C89.2609 10.9747 89.9275 11.6391 89.9275 12.9677V14.7419C89.9264 15.2233 89.9513 15.6065 90 15.8906ZM88.8248 14.235V13.492C87.5718 13.4715 86.9463 13.7955 86.9463 14.4629C86.9463 14.7143 87.0199 14.9024 87.166 15.0281C87.3175 15.1555 87.5151 15.2229 87.7179 15.2161C87.9689 15.2161 88.1994 15.1415 88.4137 14.9933C88.542 14.9077 88.6464 14.794 88.7181 14.6619C88.7897 14.5299 88.8263 14.3834 88.8248 14.235Z" fill="white"/>
<path d="M33.2103 24.8903C33.1781 21.353 36.1346 19.632 36.2698 19.5519C34.5954 17.134 32.0002 16.8037 31.0882 16.7773C28.9086 16.5501 26.7943 18.0691 25.684 18.0691C24.5515 18.0691 22.8417 16.7993 20.9989 16.8366C18.6276 16.8728 16.4091 18.2327 15.1924 20.3443C12.6815 24.65 14.5542 30.9773 16.9599 34.4576C18.1633 36.1621 19.5695 38.0652 21.41 37.9983C23.2107 37.9247 23.8833 36.8612 26.0563 36.8612C28.2094 36.8612 28.841 37.9983 30.7181 37.9555C32.6507 37.9247 33.8674 36.2433 35.0287 34.5235C36.4193 32.5698 36.9778 30.6459 37 30.5471C36.9546 30.5317 33.2468 29.1301 33.2103 24.8903ZM29.6643 14.4878C30.6328 13.2882 31.2955 11.6562 31.1115 10C29.7098 10.0615 27.9567 10.9603 26.9472 12.1336C26.0541 13.1675 25.2563 14.8621 25.4624 16.4557C27.037 16.5721 28.6537 15.6688 29.6643 14.4878Z" fill="white"/>
</g>
<defs>
<clipPath id="clip0_115_685">
<rect width="148" height="48" fill="white"/>
</clipPath>
</defs>
</svg>
