<svg width="44" height="32" viewBox="0 0 44 32" fill="none" xmlns="http://www.w3.org/2000/svg">
<path opacity="0.63" fill-rule="evenodd" clip-rule="evenodd" d="M41 31.5C42.3809 31.5 43.5 30.3809 43.5 29V3C43.5 1.61914 42.3809 0.5 41 0.5H3C1.61914 0.5 0.5 1.61914 0.5 3V29C0.5 30.3809 1.61914 31.5 3 31.5H41Z" stroke="#B9B9B0"/>
<path fill-rule="evenodd" clip-rule="evenodd" d="M12.5407 10.7413C12.8947 10.2726 13.1347 9.6431 13.0714 9C12.5536 9.02724 11.9215 9.36188 11.5557 9.83111C11.2272 10.2328 10.9365 10.8884 11.0121 11.5046C11.5935 11.558 12.1744 11.1969 12.5407 10.7413ZM13.189 12.0035C12.3467 11.952 11.6306 12.4927 11.2283 12.4927C10.8258 12.4927 10.2098 12.0292 9.54341 12.0418C8.6763 12.0547 7.87183 12.5565 7.4316 13.3547C6.52651 14.9516 7.19288 17.3202 8.07307 18.6205C8.50046 19.264 9.01565 19.9723 9.69435 19.9471C10.3356 19.9213 10.5871 19.522 11.3664 19.522C12.1455 19.522 12.3719 19.9471 13.0509 19.9342C13.7547 19.9213 14.1949 19.2905 14.6223 18.6463C15.1126 17.9129 15.3133 17.2049 15.3262 17.166C15.3133 17.1529 13.9685 16.625 13.9562 15.0415C13.9434 13.7155 15.012 13.0849 15.0623 13.0457C14.4588 12.1322 13.516 12.0292 13.189 12.0035ZM19.4684 15.0804H21.1533C22.4318 15.0804 23.1595 14.3804 23.1595 13.167C23.1595 11.9537 22.4318 11.2602 21.1598 11.2602H19.4684V15.0804ZM21.5468 10C23.3824 10 24.6609 11.2868 24.6609 13.1603C24.6609 15.0404 23.3562 16.3339 21.5008 16.3339H19.4684V19.6209H18V10H21.5468ZM29.4281 17.4356V16.8976L27.8067 17.0039C26.895 17.0636 26.4198 17.4087 26.4198 18.0131C26.4198 18.5973 26.9145 18.9759 27.6894 18.9759C28.6793 18.9759 29.4281 18.3317 29.4281 17.4356ZM25 18.053C25 16.8245 25.9182 16.1208 27.6113 16.0145L29.4281 15.9016V15.3705C29.4281 14.5935 28.9268 14.1687 28.0347 14.1687C27.2986 14.1687 26.7647 14.5536 26.654 15.1447H25.3385C25.3778 13.903 26.5237 13 28.0737 13C29.7408 13 30.8283 13.8897 30.8283 15.2709V20.0383H29.4802V18.8896H29.4477C29.0636 19.6398 28.2168 20.1111 27.2986 20.1111C25.9442 20.1111 25 19.2881 25 18.053ZM31.6964 22.5805V21.4241C31.7901 21.4372 32.0175 21.4506 32.1381 21.4506C32.8007 21.4506 33.1757 21.17 33.4033 20.4478L33.5373 20.02L31 13H32.5663L34.3338 18.6962H34.3673L36.1345 13H37.6609L35.0299 20.3744C34.4276 22.0659 33.7379 22.6209 32.2787 22.6209C32.1648 22.6209 31.7966 22.6075 31.6964 22.5805Z" fill="#1A1919"/>
</svg>
