<svg width="44" height="32" viewBox="0 0 44 32" fill="none" xmlns="http://www.w3.org/2000/svg">
<g clip-path="url(#clip0_115_516)">
<path opacity="0.63" fill-rule="evenodd" clip-rule="evenodd" d="M41 31.5C42.3809 31.5 43.5 30.3809 43.5 29V3C43.5 1.61914 42.3809 0.5 41 0.5H3C1.61914 0.5 0.5 1.61914 0.5 3V29C0.5 30.3809 1.61914 31.5 3 31.5H41Z" stroke="#B9B9B0"/>
<path d="M28.2692 16.5736H24.4231V7H28.2692H29.2308V16.5736H28.2692ZM10 7H10.9615V18.0853H10V7ZM34.0385 7H35V18.0853H34.0385V7ZM12.8846 7H13.8462V16.5736H12.8846V7ZM31.1538 7H32.1154V16.5736H31.1538V7ZM15.7692 7H19.6154V16.5736H15.7692V7ZM20.5769 7H21.5385V16.5736H20.5769V7Z" fill="#7B7B72"/>
<path fill-rule="evenodd" clip-rule="evenodd" d="M12.5016 19.3378C13.7001 19.3378 14.4402 19.8768 14.4402 20.7455C14.4402 21.3649 14.0701 21.8394 13.4588 21.9923C14.1988 22.129 14.6573 22.668 14.6573 23.416C14.6573 24.3813 13.861 24.9685 12.574 24.9685H10V19.3378H12.5016ZM12.4453 21.6384C13.0003 21.6384 13.3382 21.381 13.3382 20.9385C13.3382 20.5122 13.0003 20.2709 12.4453 20.2709H11.0779V21.6384H12.4453ZM12.4453 24.0354C13.129 24.0354 13.5393 23.7619 13.5393 23.2793C13.5393 22.8208 13.129 22.5393 12.4453 22.5393H11.0779V24.0354H12.4453ZM17.4566 20.6329C18.8079 20.6329 19.7329 21.5097 19.7329 22.8127C19.7329 24.1239 18.8079 25.0087 17.4566 25.0087C16.1133 25.0087 15.1882 24.1239 15.1882 22.8127C15.1882 21.5097 16.1133 20.6329 17.4566 20.6329ZM17.4566 21.5338C16.7487 21.5338 16.25 22.0566 16.25 22.8288C16.25 23.601 16.7487 24.1319 17.4566 24.1319C18.1725 24.1319 18.6712 23.601 18.6712 22.8288C18.6712 22.0566 18.1725 21.5338 17.4566 21.5338ZM20.6017 19H21.6474V24.9685H20.6017V19ZM24.704 20.6329C26.2162 20.6329 26.8678 21.6223 26.7632 23.1828H23.5859C23.7227 23.7941 24.1892 24.1641 24.8166 24.1641C25.259 24.1641 25.6692 23.9952 25.9749 23.6815L26.538 24.2687C26.1116 24.7352 25.4842 25.0087 24.7281 25.0087C23.3929 25.0087 22.5161 24.1239 22.5161 22.8288C22.5161 21.5177 23.417 20.6329 24.704 20.6329ZM23.5618 22.4829H25.814C25.7899 21.8475 25.3636 21.4453 24.712 21.4453C24.0927 21.4453 23.6583 21.8475 23.5618 22.4829ZM29.8681 23.9147L30.1094 24.703C29.7796 24.9041 29.4096 25.0167 29.0315 25.0167C28.3317 25.0167 27.7687 24.6145 27.7687 23.7297V21.6062H27.1654L27.1573 20.842H27.7687V19.6596H28.8063V20.842H30.037V21.6062H28.8063V23.5447C28.8063 23.955 28.9752 24.0917 29.2568 24.0917C29.4337 24.0917 29.6348 24.0273 29.8681 23.9147ZM32.7236 20.6329C34.075 20.6329 35 21.5097 35 22.8127C35 24.1239 34.075 25.0087 32.7236 25.0087C31.3803 25.0087 30.4553 24.1239 30.4553 22.8127C30.4553 21.5097 31.3803 20.6329 32.7236 20.6329ZM32.7236 21.5338C32.0158 21.5338 31.5171 22.0566 31.5171 22.8288C31.5171 23.601 32.0158 24.1319 32.7236 24.1319C33.4395 24.1319 33.9382 23.601 33.9382 22.8288C33.9382 22.0566 33.4395 21.5338 32.7236 21.5338Z" fill="#7B7B72"/>
</g>
<defs>
<clipPath id="clip0_115_516">
<rect width="44" height="32" fill="white"/>
</clipPath>
</defs>
</svg>
