<svg width="44" height="32" viewBox="0 0 44 32" fill="none" xmlns="http://www.w3.org/2000/svg">
<path opacity="0.63" fill-rule="evenodd" clip-rule="evenodd" d="M41 31.5C42.3809 31.5 43.5 30.3809 43.5 29V3C43.5 1.61914 42.3809 0.5 41 0.5H3C1.61914 0.5 0.5 1.61914 0.5 3V29C0.5 30.3809 1.61914 31.5 3 31.5H41Z" stroke="#B9B9B0"/>
<path d="M17 21H19.46L21 11H18.539L17 21Z" fill="#0D4496"/>
<path d="M26.3725 15.0587C25.4408 14.6105 24.8697 14.3111 24.8759 13.8579C24.8759 13.4552 25.3591 13.0243 26.4031 13.0243C27.2572 13.0111 27.9457 13.1831 28.6384 13.5068L29 11.4067C28.4718 11.2104 27.6444 11 26.6105 11C23.9759 11 22.1197 12.3141 22.1043 14.1968C22.089 15.5888 23.4293 16.3657 24.4407 16.829C25.4786 17.3035 25.828 17.607 25.8229 18.0309C25.8168 18.6803 24.9944 18.9767 24.2272 18.9767C23.0442 18.9767 22.4476 18.7956 21.3739 18.3141L21 20.4831C21.6232 20.7532 22.7745 20.9879 23.9708 21C26.774 21 28.5934 19.7011 28.6138 17.6899C28.621 16.5883 27.911 15.7496 26.3725 15.0587ZM35.9703 11H34.0338C33.4338 11 32.9854 11.1787 32.7214 11.8297L29 21H31.6316C31.6316 21 32.0618 19.767 32.1597 19.4963C32.4477 19.4963 35.0035 19.5005 35.3693 19.5005C35.4442 19.8506 35.6746 21 35.6746 21H38L35.9703 11ZM32.8807 17.4504C32.9844 17.162 34.0069 14.3041 34.2114 13.698C34.5504 15.4232 34.2201 13.7492 34.9613 17.4504H32.8807ZM15.2197 11.0063L12.6496 17.8325L12.3761 16.4453L11.456 11.8447C11.2971 11.2112 10.8366 11.022 10.2665 11H6.03318L6 11.208C7.02966 11.4673 7.94972 11.8415 8.75716 12.3057L11.091 21L13.8683 20.9969L18 11.0052H15.2197V11.0063Z" fill="#0D4496"/>
</svg>
