<svg width="44" height="32" viewBox="0 0 44 32" fill="none" xmlns="http://www.w3.org/2000/svg">
<path opacity="0.63" fill-rule="evenodd" clip-rule="evenodd" d="M41 31.5C42.3807 31.5 43.5 30.3807 43.5 29V3C43.5 1.61929 42.3807 0.5 41 0.5H3C1.61929 0.5 0.5 1.61929 0.5 3V29C0.5 30.3807 1.61929 31.5 3 31.5H41Z" stroke="#B9B9B0"/>
<path d="M17 24C21.4183 24 25 20.4183 25 16C25 11.5817 21.4183 8 17 8C12.5817 8 9 11.5817 9 16C9 20.4183 12.5817 24 17 24Z" fill="#EE0006"/>
<path d="M27 24C31.4183 24 35 20.4183 35 16C35 11.5817 31.4183 8 27 8C22.5817 8 19 11.5817 19 16C19 20.4183 22.5817 24 27 24Z" fill="#F99F00"/>
<path d="M22 9.75439C23.8289 11.2205 25 13.4734 25 15.9998C25 18.5261 23.8289 20.779 22 22.2451C20.1711 20.779 19 18.5261 19 15.9998C19 13.4734 20.1711 11.2205 22 9.75439Z" fill="#FF5E00"/>
</svg>
