<svg width="44" height="32" viewBox="0 0 44 32" fill="none" xmlns="http://www.w3.org/2000/svg">
<path opacity="0.63" fill-rule="evenodd" clip-rule="evenodd" d="M41 31.5C42.3809 31.5 43.5 30.3809 43.5 29V3C43.5 1.61914 42.3809 0.5 41 0.5H3C1.61914 0.5 0.5 1.61914 0.5 3V29C0.5 30.3809 1.61914 31.5 3 31.5H41Z" stroke="#B9B9B0"/>
<path fill-rule="evenodd" clip-rule="evenodd" d="M16.1787 14.9803L10.4623 17.4436C10.4534 17.3451 10.4485 17.2455 10.4485 17.1447C10.4485 15.3364 11.9143 13.8706 13.7226 13.8706C14.7008 13.8706 15.5789 14.3 16.1787 14.9803ZM13.7226 11.4221C16.42 11.4221 18.6811 13.2886 19.2859 15.8005L16.9794 16.809L16.9789 16.8042L14.6193 17.8409L8.95874 20.3159C8.35319 19.4081 8 18.3177 8 17.1447C8 13.9841 10.562 11.4221 13.7226 11.4221ZM17.7213 21.2382C15.6723 23.1829 12.9617 23.3738 10.58 21.9278L11.9256 19.8819C13.2809 20.6919 14.6424 20.5606 16.0102 19.4867L17.7213 21.2382ZM20.0513 19.8217L20.0369 9H22.0871V19.5295C22.0871 19.6306 22.0996 19.7195 22.2322 19.771L24.0157 20.4647L23.2122 22.554L21.1228 21.67C20.3306 21.3348 20.0527 20.849 20.0513 19.8217ZM27.7711 19.6397L26.5205 21.8112C25.0081 20.7736 24.0157 19.0333 24.0157 17.0607C24.0157 15.2306 24.8706 13.6012 26.2017 12.5465L27.5259 14.6927C26.8992 15.2877 26.5078 16.1283 26.5078 17.0607C26.5078 18.1096 27.0026 19.0422 27.7711 19.6397ZM28.6688 13.9869L27.6094 11.725C28.2778 11.4536 29.008 11.3028 29.7738 11.3028C32.4839 11.3028 34.7552 13.1757 35.3677 15.6974L32.8303 15.9094C32.3645 14.674 31.1721 13.7948 29.7738 13.7948C29.3859 13.7948 29.0139 13.8628 28.6688 13.9869ZM33.0356 17.219L35.5256 17.2974C35.4013 20.3675 32.8744 22.8186 29.7738 22.8186C29.1483 22.8186 28.5468 22.7175 27.983 22.5333L28.9784 20.2286C29.233 20.2923 29.4993 20.3267 29.7738 20.3267C31.5243 20.3267 32.953 18.9492 33.0356 17.219Z" fill="#20201E"/>
</svg>
