<svg width="148" height="48" viewBox="0 0 148 48" fill="none" xmlns="http://www.w3.org/2000/svg">
<g clip-path="url(#clip0_115_690)">
<path d="M144 0H4C1.79086 0 0 1.79086 0 4V44C0 46.2091 1.79086 48 4 48H144C146.209 48 148 46.2091 148 44V4C148 1.79086 146.209 0 144 0Z" fill="#353636"/>
<path d="M73.1729 25.2569C72.2406 25.2591 71.3299 25.5404 70.5559 26.0652C69.7819 26.5901 69.1794 27.3349 68.8246 28.2054C68.4699 29.076 68.3787 30.0332 68.5628 30.9561C68.7468 31.8789 69.1978 32.7259 69.8586 33.39C70.5194 34.0541 71.3604 34.5054 72.2752 34.6869C73.1901 34.8684 74.1377 34.7719 74.9982 34.4096C75.8587 34.0473 76.5935 33.4355 77.1097 32.6516C77.6259 31.8676 77.9002 30.9467 77.898 30.0054C77.907 29.3774 77.7908 28.754 77.5563 28.1723C77.3217 27.5906 76.9737 27.0625 76.5328 26.6194C76.0919 26.1764 75.5672 25.8274 74.99 25.5933C74.4128 25.3592 73.7949 25.2448 73.1729 25.2569ZM73.1729 32.888C72.6015 32.9283 72.0312 32.7942 71.5363 32.503C71.0413 32.2117 70.6446 31.7769 70.3977 31.255C70.1507 30.7331 70.065 30.1483 70.1516 29.5765C70.2383 29.0047 70.4932 28.4725 70.8834 28.049C71.2736 27.6255 71.7809 27.3303 72.3394 27.2018C72.898 27.0733 73.4819 27.1174 74.0153 27.3284C74.5486 27.5394 75.0068 27.9076 75.3302 28.385C75.6536 28.8624 75.8273 29.427 75.8287 30.0054C75.8465 30.3719 75.7915 30.7382 75.6669 31.0829C75.5422 31.4276 75.3505 31.7436 75.103 32.0122C74.8554 32.2809 74.5572 32.4968 74.2257 32.6472C73.8942 32.7976 73.5363 32.8795 73.1729 32.888ZM62.8597 25.2569C61.9274 25.2591 61.0166 25.5404 60.2426 26.0652C59.4686 26.5901 58.8662 27.3349 58.5114 28.2054C58.1566 29.076 58.0655 30.0332 58.2495 30.9561C58.4336 31.8789 58.8845 32.7259 59.5453 33.39C60.2061 34.0541 61.0471 34.5054 61.962 34.6869C62.8768 34.8684 63.8244 34.7719 64.685 34.4096C65.5455 34.0473 66.2803 33.4355 66.7965 32.6516C67.3126 31.8676 67.5869 30.9467 67.5848 30.0054C67.5938 29.3774 67.4776 28.754 67.243 28.1723C67.0085 27.5906 66.6604 27.0625 66.2195 26.6194C65.7787 26.1764 65.254 25.8274 64.6768 25.5933C64.0996 25.3592 63.4816 25.2448 62.8597 25.2569ZM62.8597 32.888C62.2882 32.9283 61.718 32.7942 61.223 32.503C60.7281 32.2117 60.3314 31.7769 60.0844 31.255C59.8375 30.7331 59.7518 30.1483 59.8384 29.5765C59.925 29.0047 60.18 28.4725 60.5702 28.049C60.9603 27.6255 61.4677 27.3303 62.0262 27.2018C62.5847 27.0733 63.1686 27.1174 63.702 27.3284C64.2354 27.5394 64.6936 27.9076 65.017 28.385C65.3404 28.8624 65.5141 29.427 65.5155 30.0054C65.5333 30.3719 65.4783 30.7382 65.3536 31.0829C65.229 31.4276 65.0372 31.7436 64.7897 32.0122C64.5422 32.2809 64.2439 32.4968 63.9124 32.6472C63.581 32.7976 63.223 32.8795 62.8597 32.888ZM50.5989 26.7205V28.7317H55.3793C55.3043 29.6789 54.9143 30.5727 54.2727 31.2679C53.7932 31.7612 53.2164 32.1474 52.5798 32.4014C51.9431 32.6555 51.2607 32.7718 50.5768 32.7427C49.168 32.7427 47.817 32.1777 46.8209 31.172C45.8248 30.1662 45.2652 28.8021 45.2652 27.3797C45.2652 25.9574 45.8248 24.5933 46.8209 23.5875C47.817 22.5817 49.168 22.0167 50.5768 22.0167C51.9273 21.9964 53.2313 22.5143 54.2063 23.458L55.6117 22.0391C54.9521 21.3804 54.169 20.8613 53.3083 20.5121C52.4475 20.163 51.5264 19.9907 50.5989 20.0056C49.6151 19.9669 48.6338 20.1292 47.7136 20.4826C46.7935 20.8361 45.9535 21.3735 45.2439 22.0625C44.5344 22.7516 43.9699 23.5782 43.5843 24.4929C43.1987 25.4075 43 26.3913 43 27.3853C43 28.3794 43.1987 29.3632 43.5843 30.2778C43.9699 31.1924 44.5344 32.019 45.2439 32.7081C45.9535 33.3972 46.7935 33.9346 47.7136 34.288C48.6338 34.6414 49.6151 34.8037 50.5989 34.765C51.5455 34.8032 52.4893 34.6388 53.3685 34.2826C54.2477 33.9263 55.0423 33.3863 55.7002 32.6981C56.8622 31.4092 57.4814 29.714 57.4264 27.9719C57.4304 27.5526 57.3971 27.1338 57.3268 26.7205H50.5989ZM100.738 28.2847C100.449 27.4275 99.9094 26.6789 99.1901 26.1382C98.4708 25.5976 97.6059 25.2902 96.7097 25.2569C96.1044 25.2557 95.5053 25.3798 94.9494 25.6217C94.3935 25.8636 93.8927 26.218 93.4779 26.663C93.063 27.1081 92.743 27.6343 92.5375 28.2092C92.3321 28.7841 92.2456 29.3954 92.2834 30.0054C92.274 31.0253 92.5916 32.0209 93.1887 32.8436C93.7859 33.6662 94.6307 34.2718 95.5968 34.5697C96.5629 34.8676 97.5986 34.842 98.5491 34.4966C99.4996 34.1512 100.314 33.5046 100.87 32.6534L99.2659 31.5361C99.0267 31.9386 98.6875 32.271 98.2818 32.5003C97.8761 32.7296 97.4181 32.8479 96.9532 32.8433C96.4736 32.8633 95.9992 32.7363 95.5923 32.4791C95.1855 32.2219 94.8652 31.8464 94.6736 31.402L100.97 28.7764L100.738 28.2847ZM94.3195 29.8713C94.2971 29.5248 94.3436 29.1773 94.4562 28.8492C94.5687 28.5211 94.7452 28.2191 94.9751 27.9609C95.2051 27.7027 95.4839 27.4935 95.795 27.3458C96.1062 27.198 96.4436 27.1146 96.7872 27.1004C97.1425 27.0774 97.4967 27.1605 97.8056 27.3393C98.1146 27.5181 98.3646 27.7848 98.5245 28.106L94.3195 29.8713ZM89.2072 34.4746H91.2765V20.5084H89.2072V34.4746ZM85.8211 26.3183H85.7436C85.4294 25.973 85.0456 25.6996 84.6181 25.5165C84.1905 25.3335 83.7291 25.2449 83.2649 25.2569C82.0556 25.3161 80.9152 25.8428 80.0801 26.7279C79.245 27.613 78.7792 28.7885 78.7792 30.011C78.7792 31.2334 79.245 32.409 80.0801 33.294C80.9152 34.1791 82.0556 34.7058 83.2649 34.765C83.734 34.7746 84.1995 34.6793 84.6279 34.4862C85.0564 34.2931 85.4374 34.0068 85.7436 33.6478H85.8211V34.3293C85.8211 36.1505 84.8583 37.1225 83.3091 37.1225C82.7916 37.1111 82.2892 36.9446 81.8656 36.6442C81.442 36.3438 81.1163 35.9231 80.93 35.4354L79.1374 36.184C79.4688 37.0245 80.045 37.7436 80.7899 38.2464C81.5348 38.7491 82.4133 39.0117 83.3091 38.9996C85.7325 38.9996 87.7354 37.5583 87.7354 34.05V25.5362H85.8211V26.3183ZM83.4419 32.888C82.7169 32.8424 82.0364 32.5194 81.539 31.9848C81.0415 31.4503 80.7646 30.7444 80.7646 30.011C80.7646 29.2775 81.0415 28.5716 81.539 28.0371C82.0364 27.5025 82.7169 27.1796 83.4419 27.1339C83.7963 27.1494 84.144 27.2366 84.4643 27.3905C84.7845 27.5444 85.0709 27.7617 85.3063 28.0296C85.5417 28.2975 85.7213 28.6105 85.8344 28.9499C85.9476 29.2894 85.992 29.6483 85.9649 30.0054C85.9951 30.3637 85.953 30.7244 85.8412 31.0659C85.7293 31.4073 85.5501 31.7222 85.3142 31.9917C85.0784 32.2611 84.7909 32.4795 84.469 32.6336C84.1472 32.7876 83.7978 32.8742 83.4419 32.888ZM110.431 20.5084H105.474V34.4746H107.543V29.1786H110.431C111.021 29.2214 111.613 29.141 112.171 28.9425C112.728 28.744 113.24 28.4317 113.672 28.025C114.105 27.6182 114.45 27.1258 114.686 26.5784C114.922 26.0311 115.044 25.4405 115.044 24.8435C115.044 24.2465 114.922 23.6559 114.686 23.1085C114.45 22.5611 114.105 22.0687 113.672 21.662C113.24 21.2552 112.728 20.9429 112.171 20.7444C111.613 20.5459 111.021 20.4656 110.431 20.5084ZM110.431 27.2121H107.543V22.4525H110.475C111.104 22.4525 111.706 22.7044 112.15 23.1528C112.594 23.6012 112.844 24.2093 112.844 24.8435C112.844 25.4776 112.594 26.0858 112.15 26.5342C111.706 26.9826 111.104 27.2345 110.475 27.2345L110.431 27.2121ZM123.201 25.2122C122.447 25.1653 121.697 25.3424 121.042 25.7217C120.387 26.101 119.857 26.6658 119.516 27.3462L121.342 28.1171C121.527 27.7813 121.803 27.5066 122.139 27.3261C122.475 27.1457 122.855 27.0673 123.234 27.1004C123.497 27.0694 123.763 27.0916 124.017 27.1656C124.271 27.2396 124.508 27.3639 124.714 27.5314C124.92 27.6988 125.091 27.906 125.217 28.1409C125.343 28.3757 125.421 28.6335 125.447 28.8993V29.0333C124.782 28.6802 124.041 28.4961 123.29 28.497C121.32 28.497 119.306 29.6143 119.306 31.6478C119.325 32.08 119.431 32.5039 119.616 32.8942C119.8 33.2845 120.061 33.6333 120.382 33.9199C120.703 34.2066 121.078 34.4251 121.484 34.5626C121.891 34.7001 122.32 34.7537 122.747 34.7204C123.267 34.7494 123.784 34.6384 124.247 34.3989C124.71 34.1593 125.101 33.7999 125.381 33.3573H125.447V34.4746H127.439V29.1004C127.439 26.6535 125.602 25.2345 123.245 25.2345L123.201 25.2122ZM122.947 32.8656C122.272 32.8656 121.331 32.5193 121.331 31.6813C121.331 30.564 122.504 30.1841 123.544 30.1841C124.201 30.1678 124.851 30.3298 125.425 30.6534C125.356 31.2602 125.071 31.8209 124.623 32.2318C124.176 32.6427 123.596 32.8758 122.991 32.888L122.947 32.8656ZM134.698 25.5362L132.33 31.5919H132.264L129.807 25.5362H127.594L131.279 34.0053L129.177 38.7091H131.39L137 25.5362H134.698ZM116.108 34.4746H118.166V20.5084H116.108V34.4746Z" fill="white"/>
<path d="M43 15.8796V10.405H44.68C45.0536 10.3871 45.427 10.445 45.7774 10.5752C46.1278 10.7054 46.4478 10.9052 46.7179 11.1624C46.9694 11.4262 47.1654 11.7372 47.2947 12.0771C47.4239 12.417 47.4838 12.7792 47.4707 13.1423C47.4838 13.5055 47.4239 13.8676 47.2947 14.2075C47.1654 14.5475 46.9694 14.8584 46.7179 15.1223C46.4478 15.3795 46.1278 15.5792 45.7774 15.7094C45.427 15.8397 45.0536 15.8975 44.68 15.8796H43ZM43.7069 15.2044H44.68C44.9557 15.2184 45.2315 15.178 45.4914 15.0856C45.7514 14.9932 45.9904 14.8507 46.1947 14.6661C46.3864 14.4626 46.5348 14.2228 46.631 13.961C46.7272 13.6991 46.7693 13.4207 46.7547 13.1423C46.7696 12.8653 46.7277 12.5881 46.6314 12.3278C46.5352 12.0674 46.3866 11.8292 46.1947 11.6277C45.992 11.4402 45.7535 11.2951 45.4933 11.2011C45.233 11.107 44.9565 11.0659 44.68 11.0802H43.7069V15.2044Z" fill="white" stroke="white" stroke-width="0.2" stroke-miterlimit="10"/>
<path d="M48.4707 15.8798V10.4053H49.1776V15.8798H48.4707Z" fill="white" stroke="white" stroke-width="0.2" stroke-miterlimit="10"/>
<path d="M51.9871 15.9985C51.5683 15.9917 51.1615 15.858 50.8212 15.6153C50.441 15.357 50.1723 14.9662 50.0684 14.5203L50.711 14.2557C50.7898 14.5528 50.956 14.8197 51.1884 15.0222C51.4077 15.2189 51.6917 15.3292 51.9871 15.3324C52.2708 15.3419 52.5492 15.255 52.7766 15.086C52.8819 15.0142 52.9673 14.9173 53.025 14.8041C53.0828 14.6909 53.111 14.5651 53.107 14.4382C53.1144 14.3018 53.0881 14.1657 53.0305 14.0417C52.9729 13.9177 52.8858 13.8095 52.7766 13.7265C52.4624 13.5155 52.1148 13.3582 51.7484 13.2612C51.3345 13.1579 50.9528 12.9541 50.6376 12.6681C50.515 12.55 50.4183 12.408 50.3535 12.251C50.2888 12.094 50.2573 11.9254 50.2612 11.7557C50.2614 11.5607 50.3032 11.368 50.3839 11.1902C50.4646 11.0125 50.5824 10.8538 50.7294 10.7247C51.0619 10.4615 51.4706 10.3114 51.8954 10.2966C52.3202 10.2818 52.7385 10.4031 53.0887 10.6425C53.3531 10.83 53.552 11.0947 53.6579 11.3999L53.0152 11.6645C52.9543 11.4751 52.8356 11.3093 52.6756 11.19C52.4756 11.0313 52.2244 10.9503 51.9687 10.9619C51.717 10.9578 51.4712 11.0382 51.271 11.19C51.1819 11.2551 51.1095 11.3404 51.0601 11.4387C51.0106 11.5371 50.9854 11.6457 50.9864 11.7557C50.9852 11.856 51.0089 11.9551 51.0553 12.0443C51.1017 12.1334 51.1695 12.2097 51.2527 12.2667C51.4878 12.4395 51.752 12.5692 52.033 12.6499C52.2641 12.7186 52.4909 12.8009 52.7123 12.8962C52.9075 12.9852 53.0922 13.0954 53.2631 13.2247C53.4445 13.3536 53.5898 13.5263 53.6854 13.7265C53.7842 13.9476 53.8343 14.1872 53.8323 14.4291C53.8364 14.6762 53.7797 14.9205 53.667 15.1408C53.5661 15.3405 53.4141 15.5104 53.2264 15.6335C53.047 15.7584 52.8487 15.8539 52.6389 15.9164C52.4268 15.9754 52.2072 16.0031 51.9871 15.9985Z" fill="white" stroke="white" stroke-width="0.2" stroke-miterlimit="10"/>
<path d="M55.5404 15.8796H54.8335V10.405H56.6695C57.119 10.3974 57.5537 10.5643 57.8813 10.8704C58.0465 11.0163 58.1774 11.1965 58.2647 11.3984C58.352 11.6002 58.3934 11.8187 58.3862 12.0383C58.3921 12.2563 58.35 12.473 58.2627 12.6732C58.1755 12.8734 58.0453 13.0522 57.8813 13.1971C57.5537 13.5031 57.119 13.6701 56.6695 13.6624H55.5404V15.8796ZM55.5404 12.9872H56.7338C56.8673 12.9933 57.0006 12.9703 57.1243 12.9199C57.2479 12.8694 57.3591 12.7928 57.4498 12.6952C57.5401 12.61 57.612 12.5074 57.6611 12.3937C57.7102 12.2799 57.7355 12.1575 57.7355 12.0337C57.7355 11.91 57.7102 11.7875 57.6611 11.6738C57.612 11.56 57.5401 11.4574 57.4498 11.3722C57.3591 11.2747 57.2479 11.198 57.1243 11.1476C57.0006 11.0971 56.8673 11.0741 56.7338 11.0802H55.5404V12.9872Z" fill="white" stroke="white" stroke-width="0.2" stroke-miterlimit="10"/>
<path d="M63.8025 15.1683C63.5373 15.432 63.2225 15.6412 62.8759 15.784C62.5294 15.9267 62.158 16.0002 61.7828 16.0002C61.4077 16.0002 61.0363 15.9267 60.6897 15.784C60.3432 15.6412 60.0284 15.432 59.7632 15.1683C59.5028 14.9005 59.3001 14.5828 59.1675 14.2345C59.0349 13.8862 58.9752 13.5147 58.9921 13.1427C58.98 12.7681 59.0455 12.395 59.1845 12.0466C59.3234 11.6981 59.5329 11.3818 59.7999 11.1171C60.0651 10.8534 60.3799 10.6441 60.7265 10.5014C61.073 10.3586 61.4444 10.2852 61.8196 10.2852C62.1947 10.2852 62.5661 10.3586 62.9127 10.5014C63.2592 10.6441 63.574 10.8534 63.8392 11.1171C64.1044 11.3835 64.3133 11.7 64.4536 12.0478C64.5939 12.3957 64.6628 12.768 64.6562 13.1427C64.6623 13.5206 64.5896 13.8957 64.4427 14.2443C64.2957 14.5929 64.0778 14.9075 63.8025 15.1683ZM60.2865 14.7121C60.4799 14.9117 60.7125 15.0698 60.9699 15.1765C61.2273 15.2833 61.504 15.3363 61.7828 15.3325C62.0619 15.338 62.3391 15.2857 62.5967 15.1788C62.8544 15.072 63.0868 14.9131 63.2792 14.7121C63.4909 14.5093 63.6582 14.2653 63.7703 13.9952C63.8825 13.7251 63.9372 13.4348 63.931 13.1427C63.942 12.8532 63.893 12.5645 63.7872 12.2946C63.6814 12.0246 63.521 11.7791 63.3159 11.5733C63.1235 11.3723 62.8911 11.2133 62.6335 11.1065C62.3758 10.9997 62.0986 10.9474 61.8196 10.9529C61.5407 10.949 61.264 11.0021 61.0066 11.1088C60.7492 11.2155 60.5166 11.3736 60.3232 11.5733C60.1211 11.7809 59.9632 12.0268 59.8591 12.2965C59.755 12.5662 59.7067 12.854 59.7173 13.1427C59.7067 13.4313 59.755 13.7192 59.8591 13.9888C59.9632 14.2585 60.1211 14.5045 60.3232 14.7121H60.2865Z" fill="white" stroke="white" stroke-width="0.2" stroke-miterlimit="10"/>
<path d="M65.6382 15.8798V10.4053H66.5562L69.2277 14.6663V13.6079V10.4053H69.9345V15.8798H69.2001L66.4461 11.4181V12.4674V15.8798H65.6382Z" fill="white" stroke="white" stroke-width="0.2" stroke-miterlimit="10"/>
<path d="M71.146 15.8797V10.4051H71.8529V15.8797H71.146ZM71.807 9.97629H71.1919L71.5867 9H72.3578L71.807 9.97629Z" fill="white" stroke="white" stroke-width="0.2" stroke-miterlimit="10"/>
<path d="M74.4878 15.8798L72.5508 10.4053H73.3311L74.8183 14.8488L76.4432 10.4053H77.2235L75.2222 15.8798H74.4878Z" fill="white" stroke="white" stroke-width="0.2" stroke-miterlimit="10"/>
<path d="M81.2438 11.0805H78.7285V12.8141H80.996V13.471H78.7285V15.2046H81.2438V15.8798H78.0308V10.4053H81.2438V11.0805Z" fill="white" stroke="white" stroke-width="0.2" stroke-miterlimit="10"/>
<path d="M82.3462 15.8798V10.4053H83.0806V15.2046H85.4675V15.8798H82.3462Z" fill="white" stroke="white" stroke-width="0.2" stroke-miterlimit="10"/>
<path d="M88.1748 15.8798V10.4053H89.0378L91.7184 14.6663V13.6079V10.4053H92.4252V15.8798H91.6816L88.8817 11.4181V12.4674V15.8798H88.1748Z" fill="white" stroke="white" stroke-width="0.2" stroke-miterlimit="10"/>
<path d="M98.1908 15.168C97.9257 15.4317 97.6109 15.6409 97.2643 15.7837C96.9178 15.9264 96.5463 15.9999 96.1712 15.9999C95.7961 15.9999 95.4247 15.9264 95.0781 15.7837C94.7316 15.6409 94.4167 15.4317 94.1516 15.168C93.8846 14.9033 93.6751 14.5869 93.5361 14.2385C93.3972 13.8901 93.3317 13.517 93.3437 13.1424C93.3317 12.7678 93.3972 12.3947 93.5361 12.0463C93.6751 11.6978 93.8846 11.3815 94.1516 11.1168C94.416 10.8533 94.73 10.6443 95.0758 10.5017C95.4216 10.3591 95.7923 10.2856 96.1666 10.2856C96.541 10.2856 96.9117 10.3591 97.2575 10.5017C97.6032 10.6443 97.9173 10.8533 98.1817 11.1168C98.4503 11.3807 98.6615 11.6967 98.8021 12.0452C98.9426 12.3936 99.0095 12.7671 98.9987 13.1424C99.0107 13.517 98.9453 13.8901 98.8063 14.2385C98.6673 14.5869 98.4579 14.9033 98.1908 15.168ZM94.6749 14.7118C94.8704 14.9087 95.1034 15.0651 95.3603 15.1719C95.6172 15.2786 95.8928 15.3336 96.1712 15.3336C96.4496 15.3336 96.7253 15.2786 96.9822 15.1719C97.239 15.0651 97.472 14.9087 97.6676 14.7118C97.8709 14.5047 98.0302 14.259 98.1359 13.9893C98.2416 13.7197 98.2915 13.4316 98.2826 13.1424C98.2915 12.8531 98.2416 12.5651 98.1359 12.2955C98.0302 12.0258 97.8709 11.7801 97.6676 11.573C97.472 11.376 97.239 11.2196 96.9822 11.1129C96.7253 11.0062 96.4496 10.9512 96.1712 10.9512C95.8928 10.9512 95.6172 11.0062 95.3603 11.1129C95.1034 11.2196 94.8704 11.376 94.6749 11.573C94.4781 11.7831 94.3256 12.0302 94.2262 12.2997C94.1269 12.5692 94.0828 12.8557 94.0965 13.1424C94.0828 13.4291 94.1269 13.7156 94.2262 13.9851C94.3256 14.2546 94.4781 14.5017 94.6749 14.7118Z" fill="white" stroke="white" stroke-width="0.2" stroke-miterlimit="10"/>
<path d="M11.4448 11.412C11.1269 11.8101 10.9701 12.3156 11.006 12.8263V35.1718C10.9721 35.6874 11.1405 36.1957 11.4747 36.5861L11.5445 36.6669L23.8691 24.1506V23.8475L11.5146 11.3413L11.4448 11.412Z" fill="url(#paint0_linear_115_690)"/>
<path d="M27.9569 28.3226L23.8687 24.1505V23.8474L27.9569 19.6753L28.0466 19.7359L32.9425 22.5442C34.3385 23.3423 34.3385 24.6556 32.9425 25.4637L28.0666 28.272L27.9569 28.3226Z" fill="url(#paint1_linear_115_690)"/>
<path d="M28.0766 28.2721L23.8687 23.999L11.4443 36.586C11.7261 36.8401 12.0868 36.9863 12.4638 36.9992C12.8408 37.0121 13.2104 36.891 13.5084 36.6568L28.0766 28.2721Z" fill="url(#paint2_linear_115_690)"/>
<path d="M28.0772 19.7358L13.5089 11.3512C13.2128 11.1137 12.8435 10.9896 12.466 11.0007C12.0885 11.0118 11.7269 11.1573 11.4448 11.4118L23.8692 23.9988L28.0772 19.7358Z" fill="url(#paint3_linear_115_690)"/>
<path opacity="0.2" d="M27.957 28.1714L13.5084 36.5055C13.2212 36.7251 12.8711 36.8439 12.5113 36.8439C12.1514 36.8439 11.8014 36.7251 11.5141 36.5055L11.4443 36.5762L11.5141 36.657C11.8014 36.8766 12.1514 36.9954 12.5113 36.9954C12.8711 36.9954 13.2212 36.8766 13.5084 36.657L28.0766 28.2724L27.957 28.1714Z" fill="#353636"/>
<path opacity="0.12" d="M11.4445 36.4449C11.1242 36.0442 10.9672 35.5346 11.0057 35.0205V35.172C10.9718 35.6876 11.1402 36.1959 11.4744 36.5863L11.5442 36.5156L11.4445 36.4449Z" fill="#353636"/>
<path opacity="0.12" d="M32.9432 25.3123L27.9575 28.1711L28.0473 28.2721L32.9432 25.4537C33.2322 25.3299 33.4829 25.1295 33.6689 24.8734C33.8549 24.6174 33.9694 24.3154 34.0002 23.999C33.9379 24.2865 33.8097 24.5551 33.6261 24.7832C33.4425 25.0113 33.2086 25.1925 32.9432 25.3123Z" fill="#353636"/>
<path opacity="0.25" d="M13.5092 11.493L32.9434 22.686C33.2088 22.8057 33.4428 22.987 33.6264 23.2151C33.8099 23.4432 33.9381 23.7118 34.0004 23.9992C33.9696 23.6829 33.8552 23.3808 33.6692 23.1248C33.4832 22.8688 33.2324 22.6684 32.9434 22.5446L13.5092 11.3516C12.1231 10.5435 11.0063 11.2102 11.0063 12.8265V12.978C11.0063 11.3617 12.1231 10.695 13.5092 11.493Z" fill="white"/>
</g>
<defs>
<linearGradient id="paint0_linear_115_690" x1="22.7723" y1="12.594" x2="5.82267" y2="29.3246" gradientUnits="userSpaceOnUse">
<stop stop-color="#00A0FF"/>
<stop offset="0.01" stop-color="#00A1FF"/>
<stop offset="0.26" stop-color="#00BEFF"/>
<stop offset="0.51" stop-color="#00D2FF"/>
<stop offset="0.76" stop-color="#00DFFF"/>
<stop offset="1" stop-color="#00E3FF"/>
</linearGradient>
<linearGradient id="paint1_linear_115_690" x1="34.7673" y1="23.9989" x2="10.6466" y2="23.9989" gradientUnits="userSpaceOnUse">
<stop stop-color="#FFE000"/>
<stop offset="0.41" stop-color="#FFBD00"/>
<stop offset="0.78" stop-color="#FFA500"/>
<stop offset="1" stop-color="#FF9C00"/>
</linearGradient>
<linearGradient id="paint2_linear_115_690" x1="25.7932" y1="26.3225" x2="2.80327" y2="49.0054" gradientUnits="userSpaceOnUse">
<stop stop-color="#FF3A44"/>
<stop offset="1" stop-color="#C31162"/>
</linearGradient>
<linearGradient id="paint3_linear_115_690" x1="8.31385" y1="3.97675" x2="18.5765" y2="14.1069" gradientUnits="userSpaceOnUse">
<stop stop-color="#32A071"/>
<stop offset="0.07" stop-color="#2DA771"/>
<stop offset="0.48" stop-color="#15CF74"/>
<stop offset="0.8" stop-color="#06E775"/>
<stop offset="1" stop-color="#00F076"/>
</linearGradient>
<clipPath id="clip0_115_690">
<rect width="148" height="48" fill="white"/>
</clipPath>
</defs>
</svg>
