<svg width="44" height="32" viewBox="0 0 44 32" fill="none" xmlns="http://www.w3.org/2000/svg">
<path opacity="0.63" fill-rule="evenodd" clip-rule="evenodd" d="M0.5 2.9961V29.0039C0.5 30.3865 1.61935 31.5 3.00698 31.5H40.993C42.3814 31.5 43.5 30.3841 43.5 29.0039V2.9961C43.5 1.61346 42.3807 0.5 40.993 0.5H3.00698C1.6186 0.5 0.5 1.61594 0.5 2.9961Z" stroke="#B9B9B0"/>
<path d="M21.0802 16.2807V20.0943H19.8247V10.6764H23.1545C23.9573 10.6603 24.7336 10.9538 25.3107 11.4917C25.8947 11.9979 26.2231 12.7225 26.2114 13.4793C26.2281 14.2403 25.8992 14.9704 25.3107 15.4781C24.7284 16.0132 24.0097 16.2805 23.1545 16.2799H21.0802V16.2807ZM21.0802 11.8359V15.1235H23.1857C23.6525 15.1368 24.1034 14.96 24.428 14.6365C24.7505 14.3343 24.9325 13.9192 24.9325 13.4857C24.9325 13.0522 24.7505 12.6371 24.428 12.3349C24.1074 12.0044 23.655 11.8224 23.1857 11.8351H21.0802V11.8359ZM29.1045 13.4402C30.0325 13.4402 30.765 13.6792 31.302 14.1571C31.8391 14.635 32.1074 15.2903 32.1068 16.1229V20.0943H30.9059V19.2001H30.8513C30.3314 19.9365 29.64 20.3047 28.777 20.3047C28.0403 20.3047 27.424 20.0943 26.9281 19.6735C26.446 19.2823 26.1727 18.7026 26.1841 18.0954C26.1841 17.4287 26.4456 16.8984 26.9686 16.5046C27.4916 16.1109 28.1898 15.9135 29.0632 15.9125C29.8087 15.9125 30.4226 16.044 30.9051 16.307V16.0305C30.908 15.6166 30.7176 15.2234 30.3865 14.9597C30.0545 14.671 29.6218 14.5135 29.1747 14.5186C28.4734 14.5186 27.9184 14.8036 27.5098 15.3737L26.404 14.7027C27.0123 13.861 27.9124 13.4402 29.1045 13.4402ZM27.4802 18.1217C27.4785 18.4341 27.6336 18.7281 27.8966 18.9108C28.1743 19.1212 28.5189 19.2327 28.8721 19.2264C29.4019 19.2255 29.9098 19.0223 30.2844 18.6613C30.7003 18.284 30.9082 17.8414 30.9082 17.3335C30.5168 17.0329 29.9709 16.8826 29.2706 16.8826C28.7606 16.8826 28.3354 17.0011 27.9948 17.238C27.6509 17.4785 27.4802 17.7708 27.4802 18.1217ZM39.0004 13.6506L34.8081 22.9347H33.512L35.0678 19.6862L32.3111 13.6506H33.6758L35.6682 18.2795H35.6955L37.6334 13.6506H39.0004Z" fill="#5F6368"/>
<path d="M16.0064 15.4585C16.0069 15.0898 15.9745 14.7218 15.9097 14.3584H10.6147V16.4422H13.6475C13.5221 17.1147 13.117 17.7086 12.5261 18.0863V19.4389H14.336C15.3958 18.4974 16.0064 17.1049 16.0064 15.4585Z" fill="#4285F4"/>
<path d="M10.6147 20.7455C12.1299 20.7455 13.4057 20.2661 14.336 19.4395L12.526 18.0869C12.0223 18.416 11.3735 18.6039 10.6147 18.6039C9.15021 18.6039 7.90718 17.6526 7.46269 16.3706H5.59814V17.7645C6.5512 19.592 8.49222 20.7454 10.6147 20.7455Z" fill="#34A853"/>
<path d="M7.46289 16.3707C7.2279 15.6989 7.2279 14.9715 7.46289 14.2997V12.9058H5.59835C4.8012 14.4343 4.8012 16.2361 5.59835 17.7646L7.46289 16.3707Z" fill="#FBBC04"/>
<path d="M10.6147 12.2167C11.4154 12.2041 12.1891 12.4956 12.7686 13.0282L14.3711 11.484C13.3549 10.5643 12.0087 10.0594 10.6147 10.0751C8.49222 10.0752 6.5512 11.2286 5.59814 13.056L7.46269 14.45C7.90718 13.168 9.15021 12.2167 10.6147 12.2167Z" fill="#EA4335"/>
</svg>
