<svg width="32" height="32" viewBox="0 0 32 32" fill="none" xmlns="http://www.w3.org/2000/svg">
<path fill-rule="evenodd" clip-rule="evenodd" d="M15.9953 6.16233C19.2 6.16233 19.5762 6.17663 20.8428 6.23377C22.0143 6.28617 22.6476 6.48145 23.0714 6.64815C23.6333 6.86724 24.0333 7.12443 24.4524 7.54356C24.8714 7.96269 25.1333 8.36276 25.3476 8.9248C25.5095 9.34865 25.7095 9.98211 25.7619 11.1538C25.8191 12.4207 25.8333 12.797 25.8333 16.0024C25.8333 19.2078 25.8191 19.5841 25.7619 20.851C25.7095 22.0226 25.5143 22.6561 25.3476 23.08C25.1286 23.642 24.8714 24.042 24.4524 24.4612C24.0333 24.8804 23.6333 25.1423 23.0714 25.3567C22.6476 25.5185 22.0143 25.7186 20.8428 25.771C19.5762 25.8281 19.2 25.8424 15.9953 25.8424C12.7905 25.8424 12.4143 25.8281 11.1476 25.771C9.97622 25.7186 9.34284 25.5233 8.91905 25.3567C8.35716 25.1375 7.95716 24.8804 7.53811 24.4612C7.11905 24.042 6.85714 23.642 6.64286 23.08C6.48095 22.6561 6.28095 22.0226 6.22857 20.851C6.17143 19.5841 6.15714 19.2078 6.15714 16.0024C6.15714 12.797 6.17143 12.4207 6.22857 11.1538C6.28095 9.98211 6.47619 9.34865 6.64286 8.9248C6.86191 8.36276 7.11905 7.96269 7.53811 7.54356C7.95716 7.12443 8.35716 6.86247 8.91905 6.64815C9.34284 6.48621 9.97622 6.28617 11.1476 6.23377C12.4143 6.17186 12.7905 6.16233 15.9953 6.16233ZM15.9953 4C12.7381 4 12.3286 4.01429 11.0476 4.07144C9.77142 4.1286 8.9 4.3334 8.13811 4.6287C7.34764 4.93352 6.68095 5.34788 6.01428 6.01468C5.34762 6.68148 4.93809 7.35302 4.62857 8.13891C4.33333 8.90095 4.12857 9.77258 4.07143 11.0537C4.01428 12.3303 4 12.7399 4 15.9976C4 19.2554 4.01428 19.665 4.07143 20.9463C4.12857 22.2227 4.33333 23.0943 4.62857 23.8611C4.93333 24.6517 5.34762 25.3185 6.01428 25.9853C6.68095 26.6521 7.35236 27.0617 8.13811 27.3713C8.9 27.6666 9.77142 27.8714 11.0524 27.9286C12.3333 27.9857 12.7381 28 16 28C19.2619 28 19.6667 27.9857 20.9476 27.9286C22.2238 27.8714 23.0953 27.6666 23.8619 27.3713C24.6524 27.0665 25.3191 26.6521 25.9857 25.9853C26.6524 25.3185 27.0619 24.647 27.3714 23.8611C27.6667 23.0991 27.8714 22.2274 27.9286 20.9463C27.9857 19.665 28 19.2601 28 15.9976C28 12.7351 27.9857 12.3303 27.9286 11.049C27.8714 9.77258 27.6667 8.90095 27.3714 8.13418C27.0667 7.34349 26.6524 6.67672 25.9857 6.00992C25.3191 5.34313 24.6476 4.93352 23.8619 4.62393C23.1 4.32864 22.2286 4.12383 20.9476 4.06668C19.6619 4.01429 19.2524 4 15.9953 4ZM15.9953 9.83462C12.5953 9.83462 9.83331 12.5923 9.83331 15.9977C9.83331 19.4032 12.5953 22.1609 15.9953 22.1609C19.3953 22.1609 22.1572 19.3984 22.1572 15.9977C22.1572 12.5971 19.3953 9.83462 15.9953 9.83462ZM15.9953 19.9985C13.7857 19.9985 11.9953 18.2077 11.9953 15.9977C11.9953 13.7878 13.7857 11.9969 15.9953 11.9969C18.2047 11.9969 19.9953 13.7878 19.9953 15.9977C19.9953 18.2077 18.2047 19.9985 15.9953 19.9985ZM23.8381 9.59156C23.8381 10.386 23.1943 11.0299 22.4 11.0299C21.6057 11.0299 20.9619 10.386 20.9619 9.59156C20.9619 8.79716 21.6057 8.15316 22.4 8.15316C23.1943 8.15316 23.8381 8.79716 23.8381 9.59156Z" fill="#353636"/>
</svg>
