<svg width="32" height="32" viewBox="0 0 32 32" fill="none" xmlns="http://www.w3.org/2000/svg">
<path d="M26.2233 4.00014H5.77167C5.30737 3.9948 4.85996 4.17402 4.52775 4.49841C4.19553 4.82281 4.00571 5.26583 4 5.73011V26.2682C4.00261 26.4983 4.05051 26.7255 4.14096 26.937C4.23141 27.1486 4.36264 27.3402 4.52716 27.501C4.69168 27.6618 4.88626 27.7886 5.0998 27.8742C5.31332 27.9598 5.54163 28.0025 5.77167 27.9999H26.2233C26.6885 28.0057 27.1369 27.8265 27.4701 27.5018C27.8033 27.1771 27.9938 26.7334 28 26.2682V5.73011C27.9934 5.26523 27.8026 4.82197 27.4695 4.49762C27.1364 4.17327 26.6882 3.99435 26.2233 4.00014ZM11.1183 24.4516H7.55833V13H11.1183V24.4516ZM9.33331 11.4317C8.92545 11.4308 8.52705 11.3089 8.18836 11.0815C7.84975 10.8543 7.58604 10.5316 7.43062 10.1545C7.2752 9.77745 7.23508 9.36276 7.31527 8.96283C7.39542 8.56291 7.59236 8.19571 7.88109 7.90763C8.16989 7.61963 8.53753 7.42356 8.9376 7.34436C9.33775 7.26518 9.75236 7.30633 10.1291 7.46262C10.5058 7.61898 10.8278 7.88342 11.0543 8.22262C11.2808 8.56182 11.4017 8.96051 11.4017 9.36843C11.4017 9.63978 11.3481 9.90851 11.2441 10.1591C11.1401 10.4098 10.9877 10.6375 10.7956 10.8292C10.6034 11.0208 10.3754 11.1727 10.1244 11.2761C9.87353 11.3795 9.60473 11.4324 9.33331 11.4317ZM24.4467 24.4516H20.8933V18.8816C20.8933 17.5483 20.87 15.845 19.045 15.845C17.1916 15.845 16.9084 17.2916 16.9084 18.7849V24.4516H13.3516V13H16.765V14.565H16.8133C17.2884 13.6633 18.45 12.7151 20.1817 12.7151C23.7867 12.7151 24.4516 15.0867 24.4516 18.17L24.4467 24.4516Z" fill="#353636"/>
</svg>
