<svg width="143" height="33" viewBox="0 0 143 33" fill="none" xmlns="http://www.w3.org/2000/svg">
<g clip-path="url(#clip0_115_633)">
<path fill-rule="evenodd" clip-rule="evenodd" d="M142.326 24.5886C142.326 26.3444 140.343 28.1001 138.333 28.1001H4.15942C2.17712 28.1001 0.194824 26.3444 0.194824 24.5886V8.73025C0.194824 6.9745 2.17712 5.21875 4.13111 5.21875H138.361C140.343 5.21875 142.297 6.9745 142.297 8.73025V24.5886H142.326Z" fill="#010101"/>
<path fill-rule="evenodd" clip-rule="evenodd" d="M25.313 25.2964C28.3714 21.3885 31.6281 14.7336 29.8723 5.36013V5.33181H29.844C29.7874 5.30349 25.5396 2.83977 18.1484 1.67871C10.7856 2.81145 6.50949 5.30349 6.48117 5.33181H6.45285V5.36013C4.72542 14.7336 8.01037 21.3602 11.0688 25.2964C14.3821 29.5442 18.1484 31.6115 18.1767 31.6115H18.2051H18.2334C18.2334 31.5832 22.0281 29.5442 25.313 25.2964Z" fill="#00CB00"/>
<path fill-rule="evenodd" clip-rule="evenodd" d="M5.85833 4.65211C5.17868 8.27688 5.207 11.5335 5.6601 14.422C5.71674 14.7335 5.68842 14.5919 5.68842 14.5919H18.2052V0.744141C10.3043 1.99016 5.85833 4.65211 5.85833 4.65211Z" fill="url(#paint0_radial_115_633)"/>
<path fill-rule="evenodd" clip-rule="evenodd" d="M30.5237 4.65211C31.2033 8.36184 31.175 11.6468 30.6652 14.5919H18.1484V0.744141C26.0776 1.99016 30.5237 4.65211 30.5237 4.65211Z" fill="url(#paint1_radial_115_633)"/>
<path fill-rule="evenodd" clip-rule="evenodd" d="M18.2053 32.5458V14.5918H5.68848C7.61414 26.7122 18.2053 32.5458 18.2053 32.5458Z" fill="url(#paint2_radial_115_633)"/>
<path fill-rule="evenodd" clip-rule="evenodd" d="M29.844 18.075C29.844 18.075 30.552 15.5263 30.6936 14.5918H18.2051V32.5458C18.2051 32.5458 26.6157 27.9582 29.844 18.075Z" fill="url(#paint3_radial_115_633)"/>
<path fill-rule="evenodd" clip-rule="evenodd" d="M36.3291 20.3974C36.8671 20.6806 37.7733 20.8788 38.5379 20.8788C39.7839 20.8788 40.3786 20.2841 40.3786 19.4912C40.3786 18.585 39.7839 18.1602 38.6512 17.4806C36.8105 16.4611 36.1025 15.1302 36.1025 14.0257C36.1025 12.0434 37.5468 10.3726 40.3503 10.3726C41.2282 10.3726 42.0777 10.5992 42.4742 10.8257L42.0494 12.893C41.6813 12.6664 41.0866 12.4682 40.322 12.4682C39.2176 12.4682 38.6512 13.0912 38.6512 13.7709C38.6512 14.5072 39.0477 14.9036 40.5202 15.6965C42.3043 16.6877 42.9556 17.9337 42.9556 19.2364C42.9556 21.5018 41.1432 23.0027 38.5096 23.0027C37.4335 23.0027 36.3857 22.7479 35.9326 22.493L36.3291 20.3974Z" fill="white"/>
<path fill-rule="evenodd" clip-rule="evenodd" d="M47.1185 10.4575V22.861H44.5132V10.4575H47.1185Z" fill="white"/>
<path fill-rule="evenodd" clip-rule="evenodd" d="M50.9129 12.6663H48.5342V10.4292H55.9253V12.6663H53.5182V22.8327H50.9129V12.6663Z" fill="white"/>
<path fill-rule="evenodd" clip-rule="evenodd" d="M62.9767 17.3955H59.89V20.7371H63.3732V22.8327H57.2847V10.4575H63.1466V12.5531H59.9183V15.4132H63.005V17.3955H62.9767Z" fill="white"/>
<path fill-rule="evenodd" clip-rule="evenodd" d="M68.3291 10.6274C69.122 10.4575 70.1698 10.4009 71.3026 10.4009C72.5486 10.4009 73.7663 10.5424 74.7291 11.2787C75.4371 11.8168 75.7486 12.6663 75.7486 13.5159C75.7486 14.6203 75.1256 15.6964 73.7946 16.2345V16.2911C75.3521 16.6876 76.2017 17.9053 76.2017 19.2646C76.2017 20.284 75.8335 21.077 75.2105 21.7C74.4176 22.5212 73.0583 22.946 70.7928 22.946C69.8017 22.946 68.9521 22.8894 68.3574 22.8044V10.6274H68.3291ZM70.9627 15.5548H71.5291C72.4636 15.5548 73.1999 14.8186 73.1999 13.7991C73.1999 12.8929 72.7468 12.1849 71.6707 12.1849C71.3875 12.1849 71.161 12.2132 70.991 12.2699V15.5548H70.9627ZM70.9627 21.0486C71.1326 21.077 71.3026 21.077 71.5291 21.077C72.5769 21.077 73.4548 20.4823 73.4548 19.2079C73.4548 17.9619 72.5486 17.3389 71.5008 17.3106H70.9344V21.0486H70.9627Z" fill="white"/>
<path fill-rule="evenodd" clip-rule="evenodd" d="M77.9858 10.4575H80.5912V20.8221H84.0461V22.861H77.9858V10.4575Z" fill="white"/>
<path fill-rule="evenodd" clip-rule="evenodd" d="M88.1805 10.4575V22.861H85.5752V10.4575H88.1805Z" fill="white"/>
<path fill-rule="evenodd" clip-rule="evenodd" d="M90.5308 22.861V10.4575H92.9378L95.0051 15.3283C95.4016 16.2911 96.0529 17.877 96.4494 18.9531H96.4777C96.3927 17.6504 96.2228 15.4982 96.2228 13.2044V10.4575H98.5166V22.861H96.1095L94.0423 18.1602C93.5892 17.1124 92.9945 15.5548 92.683 14.4221H92.6547C92.7113 15.6681 92.8246 17.5938 92.8246 20.0858V22.8894H90.5308V22.861Z" fill="white"/>
<path fill-rule="evenodd" clip-rule="evenodd" d="M100.811 10.6274C101.462 10.4858 102.425 10.4009 103.472 10.4009C105.172 10.4009 106.361 10.769 107.211 11.5053C108.372 12.4681 108.966 14.1106 108.966 16.5177C108.966 19.0097 108.258 20.7938 107.097 21.7566C106.191 22.5778 104.86 22.946 102.991 22.946C102.17 22.946 101.349 22.861 100.839 22.8044V10.6274H100.811ZM103.444 20.9354C103.557 20.9637 103.756 20.9637 103.897 20.9637C105.143 20.9637 106.248 19.8309 106.248 16.4044C106.248 13.8557 105.54 12.3265 103.954 12.3265C103.784 12.3265 103.586 12.3265 103.444 12.3832V20.9354Z" fill="white"/>
<path fill-rule="evenodd" clip-rule="evenodd" d="M112.45 20.0292L111.855 22.861H109.306L112.223 10.4575H115.366L117.972 22.861H115.423L114.857 20.0292H112.45ZM114.63 18.1318L114.177 15.5265C114.035 14.7619 113.865 13.5442 113.724 12.723H113.667C113.526 13.5442 113.327 14.8469 113.186 15.5548L112.676 18.1318H114.63Z" fill="white"/>
<path fill-rule="evenodd" clip-rule="evenodd" d="M119.444 10.6274C120.096 10.4858 121.058 10.4009 122.106 10.4009C123.805 10.4009 124.995 10.769 125.844 11.5053C127.005 12.4681 127.6 14.1106 127.6 16.5177C127.6 19.0097 126.892 20.7938 125.731 21.7566C124.825 22.5778 123.494 22.946 121.625 22.946C120.804 22.946 119.982 22.861 119.473 22.8044V10.6274H119.444ZM122.078 20.9354C122.191 20.9637 122.389 20.9637 122.531 20.9637C123.777 20.9637 124.881 19.8309 124.881 16.4044C124.881 13.8557 124.174 12.3265 122.588 12.3265C122.418 12.3265 122.22 12.3265 122.078 12.3832V20.9354Z" fill="white"/>
<path fill-rule="evenodd" clip-rule="evenodd" d="M137.2 16.4327C137.2 21.1053 135.416 23.0026 132.839 23.0026C129.78 23.0026 128.591 20.0292 128.591 16.6026C128.591 13.2044 130.035 10.2876 133.037 10.2876C136.293 10.3159 137.2 13.6008 137.2 16.4327ZM131.309 16.6593C131.309 19.4628 131.876 20.907 132.952 20.907C134.056 20.907 134.481 19.0663 134.481 16.546C134.481 14.3655 134.113 12.4115 132.952 12.4115C131.904 12.4115 131.309 13.9973 131.309 16.6593Z" fill="white"/>
</g>
<defs>
<radialGradient id="paint0_radial_115_633" cx="0" cy="0" r="1" gradientUnits="userSpaceOnUse" gradientTransform="translate(18.2026 14.7204) scale(14.6181 15.7613)">
<stop stop-color="#00F600"/>
<stop offset="0.773" stop-color="#00CB00"/>
<stop offset="1" stop-color="#00CB00"/>
</radialGradient>
<radialGradient id="paint1_radial_115_633" cx="0" cy="0" r="1" gradientUnits="userSpaceOnUse" gradientTransform="translate(18.176 14.4707) scale(12.8599 13.8122)">
<stop stop-color="#00CB00"/>
<stop offset="0.908" stop-color="#009800"/>
<stop offset="1" stop-color="#009800"/>
</radialGradient>
<radialGradient id="paint2_radial_115_633" cx="0" cy="0" r="1" gradientUnits="userSpaceOnUse" gradientTransform="translate(18.2696 14.5149) scale(12.6226 18.1057)">
<stop stop-color="#00CB00"/>
<stop offset="0.908" stop-color="#009800"/>
<stop offset="1" stop-color="#009800"/>
</radialGradient>
<radialGradient id="paint3_radial_115_633" cx="0" cy="0" r="1" gradientUnits="userSpaceOnUse" gradientTransform="translate(18.1415 14.5149) scale(12.6457 18.1799)">
<stop stop-color="#00F600"/>
<stop offset="0.773" stop-color="#00CB00"/>
<stop offset="1" stop-color="#00CB00"/>
</radialGradient>
<clipPath id="clip0_115_633">
<rect width="143" height="33" fill="white"/>
</clipPath>
</defs>
</svg>
