<svg width="32" height="32" viewBox="0 0 32 32" fill="none" xmlns="http://www.w3.org/2000/svg">
<path d="M11.5456 26.6668C20.5984 26.6668 25.552 18.4568 25.552 11.3492C25.552 11.1183 25.552 10.8873 25.5424 10.6563C26.5024 9.9004 27.3376 8.94506 28 7.86368C27.1168 8.29415 26.1664 8.57757 25.168 8.71408C26.1856 8.05262 26.9632 6.99229 27.3376 5.73244C26.3872 6.35187 25.3312 6.79281 24.208 7.03428C23.3152 5.98441 22.0288 5.3335 20.6176 5.3335C17.9008 5.3335 15.6928 7.74819 15.6928 10.7193C15.6928 11.1392 15.7408 11.5487 15.8176 11.9477C11.728 11.7167 8.0992 9.57495 5.6704 6.32037C5.248 7.11827 5.008 8.04215 5.008 9.02906C5.008 10.8978 5.8816 12.5461 7.1968 13.512C6.3904 13.4805 5.632 13.239 4.96 12.84C4.96 12.8611 4.96 12.8821 4.96 12.9136C4.96 15.5172 6.6592 17.7009 8.9056 18.1944C8.4928 18.3203 8.0608 18.3834 7.6096 18.3834C7.2928 18.3834 6.9856 18.3519 6.688 18.2888C7.312 20.4306 9.136 21.9844 11.2864 22.0264C9.5968 23.4752 7.4752 24.3361 5.1712 24.3361C4.7776 24.3361 4.384 24.3151 4 24.2627C6.1792 25.7744 8.7712 26.6668 11.5456 26.6668Z" fill="#353636"/>
</svg>
