<svg width="32" height="32" viewBox="0 0 32 32" fill="none" xmlns="http://www.w3.org/2000/svg">
<path d="M27.5004 9.70807C27.3625 9.18211 27.093 8.70276 26.719 8.3184C26.3449 7.93396 25.8796 7.65789 25.3695 7.51796C23.4974 7 15.9951 7 15.9951 7C15.9951 7 8.49076 7 6.62256 7.51796C6.11417 7.65905 5.65063 7.93571 5.27839 8.32007C4.90615 8.70444 4.63827 9.18313 4.50161 9.70807C4 11.6392 4 15.6708 4 15.6708C4 15.6708 4 19.7023 4.50161 21.6334C4.63827 22.1584 4.90615 22.637 5.27839 23.0214C5.65063 23.4058 6.11417 23.6824 6.62256 23.8236C8.49273 24.3333 15.9951 24.3333 15.9951 24.3333C15.9951 24.3333 23.4994 24.3333 25.3695 23.8153C25.8786 23.6761 26.3433 23.4013 26.7173 23.0184C27.0913 22.6355 27.3613 22.1579 27.5004 21.6334C28 19.7023 28 15.6708 28 15.6708C28 15.6708 27.9901 11.6392 27.5004 9.70807ZM19.8302 15.6708L13.5956 19.3882V11.9553L19.8302 15.6708Z" fill="#353636"/>
</svg>
