<svg width="32" height="32" viewBox="0 0 32 32" fill="none" xmlns="http://www.w3.org/2000/svg">
<path d="M8 2.66663L4 7.99996V26.6666C4 27.3739 4.28095 28.0521 4.78105 28.5522C5.28115 29.0523 5.95942 29.3333 6.66667 29.3333H25.3333C26.0406 29.3333 26.7189 29.0523 27.219 28.5522C27.719 28.0521 28 27.3739 28 26.6666V7.99996L24 2.66663H8Z" stroke="#424635" stroke-linecap="round" stroke-linejoin="round"/>
<path d="M4 8H28" stroke="#424635" stroke-linecap="round" stroke-linejoin="round"/>
<path d="M21.3332 13.3334C21.3332 14.7479 20.7713 16.1044 19.7711 17.1046C18.7709 18.1048 17.4143 18.6667 15.9998 18.6667C14.5853 18.6667 13.2288 18.1048 12.2286 17.1046C11.2284 16.1044 10.6665 14.7479 10.6665 13.3334" stroke="#424635" stroke-linecap="round" stroke-linejoin="round"/>
</svg>
