<svg width="145" height="183" viewBox="0 0 145 183" fill="none" xmlns="http://www.w3.org/2000/svg">
<path d="M0 90.1828C1.84261 74.8331 2.35504 58.4739 11.2737 43.6488C20.0833 29.0017 31.0408 16.1163 46.1415 6.31862C52.7269 2.04327 59.9882 -0.203261 68.0237 0.0144654C79.2865 0.311365 90.4621 1.45938 101.343 4.23044C116.171 8.01096 126.595 16.1064 131.305 29.6945C137.672 48.0923 142.72 66.7772 144.759 86.0163C145.784 95.6853 143.385 105.028 140.496 114.222C137.214 124.692 132.569 134.698 126.943 144.317C120.304 155.679 111.221 165.259 100.275 173.324C83.5714 185.636 64.513 185.883 44.397 175.858C28.8493 168.109 17.87 156.609 11.6008 141.536C4.85183 125.256 0.795918 108.452 0 90.1828Z" fill="#F08B80"/>
</svg>
