<svg width="96" height="16" viewBox="0 0 96 16" fill="none" xmlns="http://www.w3.org/2000/svg">
<path d="M7.14694 1.39455C7.53695 0.756977 8.46305 0.756977 8.85306 1.39455L10.4402 3.9891C10.5788 4.21582 10.8021 4.378 11.0605 4.43984L14.0185 5.1475C14.7454 5.3214 15.0316 6.20217 14.5458 6.77011L12.5686 9.08129C12.3959 9.28325 12.3106 9.54567 12.3317 9.8106L12.5727 12.8425C12.632 13.5876 11.8827 14.1319 11.1924 13.8453L8.38342 12.6792C8.13796 12.5773 7.86204 12.5773 7.61658 12.6792L4.80755 13.8453C4.11727 14.1319 3.36804 13.5876 3.42728 12.8425L3.66832 9.8106C3.68939 9.54566 3.60412 9.28325 3.43136 9.08129L1.45424 6.77011C0.968386 6.20217 1.25457 5.3214 1.98145 5.1475L4.93946 4.43984C5.19793 4.378 5.42116 4.21582 5.55984 3.9891L7.14694 1.39455Z" fill="#CE8C27"/>
<path d="M27.1469 1.39455C27.537 0.756977 28.463 0.756977 28.8531 1.39455L30.4402 3.9891C30.5788 4.21582 30.8021 4.378 31.0605 4.43984L34.0185 5.1475C34.7454 5.3214 35.0316 6.20217 34.5458 6.77011L32.5686 9.08129C32.3959 9.28325 32.3106 9.54567 32.3317 9.8106L32.5727 12.8425C32.632 13.5876 31.8827 14.1319 31.1924 13.8453L28.3834 12.6792C28.138 12.5773 27.862 12.5773 27.6166 12.6792L24.8075 13.8453C24.1173 14.1319 23.368 13.5876 23.4273 12.8425L23.6683 9.8106C23.6894 9.54566 23.6041 9.28325 23.4314 9.08129L21.4542 6.77011C20.9684 6.20217 21.2546 5.3214 21.9815 5.1475L24.9395 4.43984C25.1979 4.378 25.4212 4.21582 25.5598 3.9891L27.1469 1.39455Z" fill="#CE8C27"/>
<path d="M47.1469 1.39455C47.537 0.756977 48.463 0.756977 48.8531 1.39455L50.4402 3.9891C50.5788 4.21582 50.8021 4.378 51.0605 4.43984L54.0185 5.1475C54.7454 5.3214 55.0316 6.20217 54.5458 6.77011L52.5686 9.08129C52.3959 9.28325 52.3106 9.54567 52.3317 9.8106L52.5727 12.8425C52.632 13.5876 51.8827 14.1319 51.1924 13.8453L48.3834 12.6792C48.138 12.5773 47.862 12.5773 47.6166 12.6792L44.8075 13.8453C44.1173 14.1319 43.368 13.5876 43.4273 12.8425L43.6683 9.8106C43.6894 9.54566 43.6041 9.28325 43.4314 9.08129L41.4542 6.77011C40.9684 6.20217 41.2546 5.3214 41.9815 5.1475L44.9395 4.43984C45.1979 4.378 45.4212 4.21582 45.5598 3.9891L47.1469 1.39455Z" fill="#CE8C27"/>
<path d="M67.1469 1.39455C67.537 0.756977 68.463 0.756977 68.8531 1.39455L70.4402 3.9891C70.5788 4.21582 70.8021 4.378 71.0605 4.43984L74.0185 5.1475C74.7454 5.3214 75.0316 6.20217 74.5458 6.77011L72.5686 9.08129C72.3959 9.28325 72.3106 9.54567 72.3317 9.8106L72.5727 12.8425C72.632 13.5876 71.8827 14.1319 71.1924 13.8453L68.3834 12.6792C68.138 12.5773 67.862 12.5773 67.6166 12.6792L64.8075 13.8453C64.1173 14.1319 63.368 13.5876 63.4273 12.8425L63.6683 9.8106C63.6894 9.54566 63.6041 9.28325 63.4314 9.08129L61.4542 6.77011C60.9684 6.20217 61.2546 5.3214 61.9815 5.1475L64.9395 4.43984C65.1979 4.378 65.4212 4.21582 65.5598 3.9891L67.1469 1.39455Z" fill="#CE8C27"/>
<path d="M87.1469 1.39455C87.537 0.756977 88.463 0.756977 88.8531 1.39455L90.4402 3.9891C90.5788 4.21582 90.8021 4.378 91.0605 4.43984L94.0185 5.1475C94.7454 5.3214 95.0316 6.20217 94.5458 6.77011L92.5686 9.08129C92.3959 9.28325 92.3106 9.54567 92.3317 9.8106L92.5727 12.8425C92.632 13.5876 91.8827 14.1319 91.1924 13.8453L88.3834 12.6792C88.138 12.5773 87.862 12.5773 87.6166 12.6792L84.8075 13.8453C84.1173 14.1319 83.368 13.5876 83.4273 12.8425L83.6683 9.8106C83.6894 9.54566 83.6041 9.28325 83.4314 9.08129L81.4542 6.77011C80.9684 6.20217 81.2546 5.3214 81.9815 5.1475L84.9395 4.43984C85.1979 4.378 85.4212 4.21582 85.5598 3.9891L87.1469 1.39455Z" fill="#CE8C27"/>
</svg>
