<svg width="119" height="39" viewBox="0 0 119 39" fill="none" xmlns="http://www.w3.org/2000/svg">
<path d="M80.8762 14.3535C85.6885 8.79987 91.6173 4.51157 98.5212 1.69255C105.171 -1.02102 111.736 -4.07204 119 -5C116.52 -2.75744 113.403 -1.81542 110.478 -0.521908C105.03 1.88937 99.3975 3.95619 94.133 6.71194C89.9072 8.92639 86.1973 12.0477 83.0809 16.2094C83.7381 17.0179 84.4518 17.749 84.9889 18.5926C86.3033 20.6383 87.7448 22.6419 88.7624 24.8282C89.9072 27.2887 88.9603 29.6648 87.4622 31.7176C85.9429 33.7914 83.1092 34.7897 80.862 33.8898C78.6149 32.99 76.926 31.4083 76.6504 28.7509C76.283 25.1938 76.4879 21.7702 78.516 18.6489C78.8269 18.1708 78.9541 17.5733 79.1661 17.039C78.1485 15.3096 76.4596 14.9019 74.7354 14.4519C66.7856 12.364 59.3799 14.3043 52.165 17.4678C50.1651 18.3466 48.3137 19.5768 46.1443 20.7789C47.2184 21.742 48.0169 22.3888 48.7377 23.1058C51.4018 25.7702 52.3345 29.8757 50.8294 32.7088C48.1582 37.7282 44.4978 39.31 40.4204 38.9514C38.2651 38.7616 35.6647 35.2396 35.6011 32.7721C35.4951 29.0251 37.3323 26.1077 39.5583 23.3449C40.2013 22.5435 40.908 21.7983 41.9185 20.6453C25.92 15.9774 12.0555 18.6629 0 30.0585C1.50517 27.1551 3.60394 25.011 6.16202 23.2605C9.773 20.793 13.7726 18.9933 17.9701 18.0161C25.7079 16.2094 33.5447 15.9845 41.1412 18.8316C42.9149 19.4995 44.0879 19.2745 45.6284 18.2552C53.1967 13.2569 61.5776 10.8737 70.6439 11.7454C73.9652 12.0758 77.1804 13.3834 80.8762 14.3535ZM44.8935 22.5505C40.5759 24.6946 37.615 29.5102 38.0532 33.6719C38.3429 36.3925 39.9399 37.6649 42.6181 37.0814C45.0066 36.5612 46.7238 34.9654 48.1512 33.0814C50.2287 30.3327 49.826 25.4187 44.8935 22.5505ZM81.2719 19.1128C79.689 22.0232 78.8763 24.9899 79.0459 28.1464C79.1661 30.3467 80.6571 32.0058 82.2895 32.0972C83.936 32.1886 85.5471 30.6982 86.0701 28.6033C86.7767 25.7702 84.9818 20.9125 82.5863 19.3237C82.2541 19.1058 81.7312 19.1761 81.2719 19.1128Z" fill="#CE8C27"/>
</svg>
