<svg width="89" height="38" viewBox="0 0 89 38" fill="none" xmlns="http://www.w3.org/2000/svg">
<path d="M68.6428 16.7144C72.7272 11.9181 77.7592 8.21454 83.6189 5.77993C89.2626 3.43639 94.8344 0.801418 101 0C98.8948 1.93676 96.2499 2.75032 93.7669 3.86744C89.1427 5.94991 84.3626 7.7349 79.8944 10.1149C76.3078 12.0273 73.159 14.723 70.5141 18.3172C71.0718 19.0154 71.6776 19.6469 72.1334 20.3754C73.249 22.1422 74.4725 23.8725 75.3361 25.7607C76.3078 27.8857 75.5041 29.9378 74.2326 31.7106C72.9431 33.5017 70.538 34.3638 68.6308 33.5867C66.7236 32.8096 65.2902 31.4435 65.0562 29.1485C64.7444 26.0764 64.9183 23.1197 66.6396 20.424C66.9035 20.0112 67.0115 19.4951 67.1914 19.0337C66.3277 17.5401 64.8943 17.188 63.4309 16.7994C56.6835 14.9962 50.398 16.6719 44.2745 19.404C42.5771 20.1629 41.0057 21.2254 39.1645 22.2636C40.0761 23.0954 40.7539 23.6539 41.3656 24.2732C43.6267 26.5743 44.4184 30.1199 43.1409 32.5667C40.8738 36.9016 37.767 38.2677 34.3064 37.9581C32.4771 37.7941 30.27 34.7524 30.216 32.6213C30.1261 29.3853 31.6854 26.8657 33.5747 24.4797C34.1205 23.7875 34.7202 23.144 35.5779 22.1483C21.9993 18.1169 10.2319 20.4361 0 30.2778C1.27749 27.7703 3.05881 25.9186 5.22995 24.4068C8.29473 22.2758 11.6894 20.7215 15.252 19.8776C21.8194 18.3172 28.4707 18.123 34.9182 20.5819C36.4236 21.1587 37.4192 20.9644 38.7267 20.084C45.1501 15.7673 52.2633 13.7091 59.9583 14.4619C62.7771 14.7473 65.5061 15.8766 68.6428 16.7144ZM38.1029 23.7936C34.4384 25.6454 31.9254 29.8042 32.2972 33.3985C32.5431 35.7481 33.8986 36.847 36.1717 36.3431C38.1989 35.8938 39.6563 34.5156 40.8678 32.8885C42.6311 30.5146 42.2893 26.2707 38.1029 23.7936ZM68.9787 20.8247C67.6352 23.3382 66.9455 25.9004 67.0894 28.6264C67.1914 30.5267 68.4569 31.9596 69.8423 32.0385C71.2398 32.1174 72.6072 30.8303 73.051 29.021C73.6508 26.5743 72.1274 22.379 70.0942 21.0069C69.8123 20.8187 69.3685 20.8793 68.9787 20.8247Z" fill="#CE8C27"/>
</svg>
