<svg width="199" height="188" viewBox="0 0 199 188" fill="none" xmlns="http://www.w3.org/2000/svg">
<path d="M81.9791 187.958C71.2685 188.45 62.5276 184.652 55.4248 176.71C52.0359 172.918 48.4944 169.273 45.0127 165.575C40.5162 160.799 36.809 155.504 33.6323 149.743C28.2405 139.972 22.5835 130.347 16.9795 120.702C10.3409 109.274 4.53797 97.4606 1.8852 84.4298C-3.22802 59.3195 2.01785 36.5506 18.1401 16.5288C23.8701 9.41143 31.0989 4.2297 39.9061 1.50914C48.8923 -1.26464 57.5802 -0.0340569 66.0226 3.72418C72.9596 6.81059 79.2533 10.928 84.2406 16.6818C89.0752 22.2692 94.0293 27.8634 98.0681 34.0229C106.955 47.5725 117.699 59.2862 130.279 69.4102C143.185 79.7936 155.985 90.31 168.844 100.76C175.549 106.208 181.849 112.068 187.268 118.833C195.319 128.883 199.265 140.371 198.986 153.255C198.933 155.67 198.608 158.125 198.038 160.473C195.438 171.195 188.289 177.102 177.817 179.537C168.181 181.778 158.352 182.064 148.55 182.556C139.398 183.009 130.226 182.962 121.088 183.534C113.945 183.987 106.836 185.038 99.7195 185.856C93.7905 186.521 87.8881 187.246 81.9791 187.958Z" fill="#D7CCAF"/>
</svg>
