<svg width="693" height="360" viewBox="0 0 693 360" fill="none" xmlns="http://www.w3.org/2000/svg">
<path d="M457.629 -36C486.034 -35.7517 519.064 -32.7432 551.423 -24.1413C587.108 -14.6485 618.81 2.14646 644.414 29.033C670.441 56.3869 686.168 89.1297 691.143 126.59C696.438 166.416 689.975 205.161 677.268 242.782C669.667 265.287 660.447 287.296 650.906 309.071C628.234 360.785 591.105 400.158 543.763 429.878C507.962 452.354 468.659 466.228 426.554 470.857C393.583 474.479 362.961 467.148 335.198 448.367C322.155 439.531 308.587 431.455 295.136 423.247C278.446 413.053 260.822 412.703 242.527 418.369C224.437 423.977 208.579 433.777 192.837 443.883C183.646 449.783 174.557 455.844 165.249 461.554C156.087 467.177 146.283 471.354 135.604 473.121C117.922 476.027 101.903 471.602 87.241 461.7C75.4238 453.726 65.7221 443.606 57.4939 431.995C35.4789 400.903 21.2253 366.188 10.371 329.955C3.44122 306.807 -0.527026 283.163 0.0565379 258.861C0.435855 243.001 2.55122 227.345 6.47569 212.025C13.6827 183.912 23.8805 156.967 39.1699 132.11C51.381 112.248 66.1743 94.6064 84.9068 80.6884C107.885 63.616 130.921 46.5874 155.533 31.837C188.489 12.092 223.737 -1.91354 261.07 -10.6907C295.559 -18.7961 330.398 -25.2658 365.528 -29.8078C394.429 -33.5319 423.476 -35.927 457.629 -36Z" fill="#CE8C27"/>
</svg>
